<svg width="56" height="56" viewBox="0 0 56 56" fill="none" xmlns="http://www.w3.org/2000/svg">
<rect x="1" y="1" width="54" height="54" rx="16" fill="#FBF0C4"/>
<rect x="1" y="1" width="54" height="54" rx="16" stroke="#091A3C" stroke-width="2"/>
<path d="M21.3333 37.8668C21.3333 39.7813 22.8257 41.3334 24.6666 41.3334C26.5076 41.3334 28 39.7813 28 37.8668V26.6667M28 26.6667C25.8531 26.6667 22.6666 28.0001 22.6666 28.0001C22.6666 28.0001 20.8135 26.6667 18.6666 26.6667C16.5197 26.6667 14.6666 28.0001 14.6666 28.0001C14.6666 20.6363 20.6362 14.6667 28 14.6667C35.3638 14.6667 41.3333 20.6363 41.3333 28.0001C41.3333 28.0001 39.4802 26.6667 37.3333 26.6667C35.1864 26.6667 33.3333 28.0001 33.3333 28.0001C33.3333 28.0001 30.1469 26.6667 28 26.6667Z" stroke="#091A3C" stroke-width="2" stroke-linecap="round" stroke-linejoin="round"/>
</svg>
