<svg width="56" height="56" viewBox="0 0 56 56" fill="none" xmlns="http://www.w3.org/2000/svg">
<rect x="1" y="1" width="54" height="54" rx="16" fill="#FBF0C4"/>
<rect x="1" y="1" width="54" height="54" rx="16" stroke="#091A3C" stroke-width="2"/>
<path d="M24 28.0001L26.6667 30.6667L32.6667 24.6667M21.7784 17.0917C22.8502 17.0061 23.8676 16.5847 24.686 15.8873C26.5957 14.2599 29.4044 14.2599 31.3141 15.8873C32.1324 16.5847 33.1499 17.0061 34.2217 17.0917C36.7228 17.2913 38.7088 19.2773 38.9084 21.7784C38.994 22.8502 39.4154 23.8677 40.1128 24.686C41.7402 26.5957 41.7402 29.4044 40.1128 31.3141C39.4154 32.1325 38.994 33.1499 38.9084 34.2217C38.7088 36.7228 36.7228 38.7089 34.2217 38.9085C33.1499 38.994 32.1324 39.4155 31.3141 40.1129C29.4044 41.7403 26.5957 41.7403 24.686 40.1129C23.8676 39.4155 22.8502 38.994 21.7784 38.9085C19.2773 38.7089 17.2912 36.7228 17.0916 34.2217C17.0061 33.1499 16.5846 32.1325 15.8872 31.3141C14.2598 29.4044 14.2598 26.5957 15.8872 24.686C16.5846 23.8677 17.0061 22.8502 17.0916 21.7784C17.2912 19.2773 19.2773 17.2913 21.7784 17.0917Z" stroke="#091A3C" stroke-width="2" stroke-linecap="round" stroke-linejoin="round"/>
</svg>
