<svg width="56" height="56" viewBox="0 0 56 56" fill="none" xmlns="http://www.w3.org/2000/svg">
<rect x="1" y="1" width="54" height="54" rx="16" fill="#FBF0C4"/>
<rect x="1" y="1" width="54" height="54" rx="16" stroke="#091A3C" stroke-width="2"/>
<path d="M28 41.3334C35.3638 41.3334 41.3333 35.3639 41.3333 28.0001C41.3333 20.6363 35.3638 14.6667 28 14.6667C20.6362 14.6667 14.6667 20.6363 14.6667 28.0001C14.6667 35.3639 20.6362 41.3334 28 41.3334Z" stroke="#091A3C" stroke-width="2" stroke-linecap="round" stroke-linejoin="round"/>
<path d="M30.3087 29.593C30.2147 29.3108 30.1676 29.1697 30.1701 29.0543C30.1727 28.9329 30.1889 28.8693 30.2448 28.7615C30.2979 28.659 30.44 28.5268 30.7242 28.2623C31.5091 27.532 32 26.49 32 25.3334C32 23.1243 30.2091 21.3334 28 21.3334C25.7909 21.3334 24 23.1243 24 25.3334C24 26.49 24.4909 27.532 25.2757 28.2623C25.5599 28.5268 25.702 28.659 25.7552 28.7615C25.8111 28.8693 25.8273 28.9329 25.8299 29.0543C25.8323 29.1697 25.7853 29.3108 25.6912 29.593L24.468 33.2628C24.31 33.7368 24.231 33.9738 24.2783 34.1624C24.3198 34.3276 24.4229 34.4706 24.5664 34.5622C24.7304 34.6667 24.9803 34.6667 25.4799 34.6667H30.5201C31.0197 34.6667 31.2695 34.6667 31.4335 34.5622C31.5771 34.4706 31.6802 34.3276 31.7216 34.1624C31.769 33.9738 31.69 33.7368 31.532 33.2628L30.3087 29.593Z" stroke="#091A3C" stroke-width="2" stroke-linecap="round" stroke-linejoin="round"/>
</svg>
