<svg width="117" height="32" viewBox="0 0 117 32" fill="none" xmlns="http://www.w3.org/2000/svg">
<path d="M32 27.0991C32 29.8058 29.8058 32 27.0991 32C24.3924 32 22.1982 29.8058 22.1982 27.0991C22.1982 24.3924 24.3924 22.1982 27.0991 22.1982C29.8058 22.1982 32 24.3924 32 27.0991Z" fill="#091A3C"/>
<path d="M8.64866 4.9009C8.64866 2.19421 10.8429 0 13.5496 0C16.2563 0 18.4505 2.19421 18.4505 4.9009V27.0991C18.4505 29.8058 16.2563 32 13.5496 32C10.8429 32 8.64866 29.8058 8.64866 27.0991V4.9009Z" fill="#091A3C"/>
<path d="M4.9009 18.7387C2.19421 18.7387 1.18313e-07 16.5445 0 13.8378C-1.18313e-07 11.1311 2.19421 8.93694 4.9009 8.93694L27.0991 8.93694C29.8058 8.93694 32 11.1311 32 13.8378C32 16.5445 29.8058 18.7387 27.0991 18.7387L4.9009 18.7387Z" fill="#091A3C"/>
<path d="M48.7958 26.6554C47.427 26.6554 46.357 26.2724 45.5859 25.5065C44.8147 24.7215 44.4291 23.6684 44.4291 22.3473V8.33159H48.9404V22.0888C48.9404 22.3185 49.0175 22.5196 49.1718 22.6919C49.3453 22.8451 49.5477 22.9217 49.779 22.9217H53.0179V26.6554H48.7958ZM42 15.5692V11.9217H53.0179V15.5692H42Z" fill="#091A3C"/>
<path d="M55.7568 26.6554V11.9217H60.268V26.6554H55.7568ZM58.0124 10.2559C57.2991 10.2559 56.6822 9.99739 56.1616 9.48042C55.6411 8.96345 55.3808 8.35074 55.3808 7.6423C55.3808 6.93385 55.6411 6.32115 56.1616 5.80418C56.6822 5.26806 57.2991 5 58.0124 5C58.7257 5 59.3427 5.26806 59.8632 5.80418C60.3837 6.32115 60.644 6.93385 60.644 7.6423C60.644 8.35074 60.3837 8.96345 59.8632 9.48042C59.3427 9.99739 58.7257 10.2559 58.0124 10.2559Z" fill="#091A3C"/>
<path d="M71.3881 27C69.7879 27 68.3902 26.6745 67.1949 26.0235C65.9996 25.3725 65.0742 24.4439 64.4187 23.2376C63.7633 22.0313 63.4355 20.624 63.4355 19.0157V5.6893H67.9179V13.53H68.0046C68.2938 13.1279 68.6505 12.7833 69.0746 12.4961C69.518 12.1897 70 11.96 70.5205 11.8068C71.0603 11.6536 71.629 11.577 72.2267 11.577C73.6341 11.577 74.8679 11.8929 75.9282 12.5248C76.9886 13.1567 77.8176 14.0278 78.4152 15.1384C79.0322 16.2489 79.3406 17.5509 79.3406 19.0444C79.3406 20.1932 79.1575 21.2559 78.7912 22.2324C78.4249 23.2089 77.8947 24.0609 77.2007 24.7885C76.5259 25.497 75.6969 26.0426 74.7137 26.4256C73.7497 26.8085 72.6412 27 71.3881 27ZM71.3881 23.1514C72.0821 23.1514 72.6798 22.9887 73.181 22.6632C73.6823 22.3185 74.0678 21.859 74.3377 21.2846C74.6269 20.691 74.7715 20.0305 74.7715 19.3029C74.7715 18.5753 74.6269 17.9243 74.3377 17.3499C74.0678 16.7755 73.6823 16.3255 73.181 16C72.6798 15.6554 72.0821 15.483 71.3881 15.483C70.694 15.483 70.0867 15.6554 69.5662 16C69.065 16.3255 68.6794 16.7755 68.4095 17.3499C68.1396 17.9243 68.0046 18.5753 68.0046 19.3029C68.0046 20.0305 68.1396 20.691 68.4095 21.2846C68.6794 21.859 69.065 22.3185 69.5662 22.6632C70.0867 22.9887 70.694 23.1514 71.3881 23.1514Z" fill="#091A3C"/>
<path d="M81.9923 26.6554V11.9217H86.5036V26.6554H81.9923ZM84.2479 10.2559C83.5346 10.2559 82.9177 9.99739 82.3971 9.48042C81.8766 8.96345 81.6164 8.35074 81.6164 7.6423C81.6164 6.93385 81.8766 6.32115 82.3971 5.80418C82.9177 5.26806 83.5346 5 84.2479 5C84.9612 5 85.5782 5.26806 86.0987 5.80418C86.6192 6.32115 86.8795 6.93385 86.8795 7.6423C86.8795 8.35074 86.6192 8.96345 86.0987 9.48042C85.5782 9.99739 84.9612 10.2559 84.2479 10.2559Z" fill="#091A3C"/>
<path d="M97.0741 26.6554C95.5318 26.6554 94.163 26.3394 92.9677 25.7076C91.7724 25.0566 90.8278 24.1854 90.1337 23.094C89.4397 21.9835 89.0927 20.7198 89.0927 19.3029C89.0927 17.886 89.4397 16.6319 90.1337 15.5405C90.8278 14.4299 91.7724 13.5492 92.9677 12.8982C94.163 12.2472 95.5318 11.9217 97.0741 11.9217H99.3008V15.6841H97.2476C96.4958 15.6841 95.8499 15.8468 95.3101 16.1723C94.7703 16.4787 94.3462 16.9095 94.0377 17.4648C93.7485 18.0009 93.6039 18.6136 93.6039 19.3029C93.6039 19.9922 93.7485 20.6144 94.0377 21.1697C94.3462 21.7058 94.7703 22.1366 95.3101 22.4621C95.8499 22.7685 96.4958 22.9217 97.2476 22.9217H99.3008V26.6554H97.0741Z" fill="#091A3C"/>
<path d="M107.746 27C106.435 27 105.278 26.6649 104.276 25.9948C103.273 25.3246 102.493 24.4247 101.934 23.295C101.374 22.1462 101.095 20.8538 101.095 19.4178C101.095 17.9243 101.423 16.5936 102.078 15.4256C102.734 14.2385 103.659 13.3003 104.854 12.611C106.069 11.9217 107.495 11.577 109.134 11.577C110.792 11.577 112.2 11.9217 113.356 12.611C114.532 13.2811 115.429 14.2097 116.046 15.3969C116.682 16.5648 117 17.8764 117 19.3316V26.6554H112.604V24.3003H112.489C112.219 24.8172 111.872 25.2863 111.448 25.7076C111.024 26.1097 110.503 26.4256 109.886 26.6554C109.288 26.8851 108.575 27 107.746 27ZM109.076 23.1514C109.751 23.1514 110.339 22.9887 110.84 22.6632C111.361 22.3185 111.756 21.8494 112.026 21.2559C112.296 20.6623 112.431 20.0017 112.431 19.2742C112.431 18.5657 112.296 17.9243 112.026 17.3499C111.756 16.7755 111.361 16.3255 110.84 16C110.339 15.6554 109.751 15.483 109.076 15.483C108.382 15.483 107.775 15.6554 107.255 16C106.734 16.3255 106.339 16.7755 106.069 17.3499C105.799 17.9243 105.664 18.5657 105.664 19.2742C105.664 20.0017 105.799 20.6623 106.069 21.2559C106.339 21.8494 106.734 22.3185 107.255 22.6632C107.775 22.9887 108.382 23.1514 109.076 23.1514Z" fill="#091A3C"/>
</svg>
