<svg width="75" height="22" viewBox="0 0 75 22" fill="none" xmlns="http://www.w3.org/2000/svg">
<path d="M6.79582 21.6554C5.42701 21.6554 4.35703 21.2724 3.58588 20.5065C2.81472 19.7215 2.42914 18.6684 2.42914 17.3473V3.33159H6.94041V17.0888C6.94041 17.3185 7.01752 17.5196 7.17175 17.6919C7.34526 17.8451 7.54769 17.9217 7.77904 17.9217H11.0179V21.6554H6.79582ZM0 10.5692V6.92167H11.0179V10.5692H0Z" fill="#F2F4F7"/>
<path d="M13.7568 21.6554V6.92167H18.268V21.6554H13.7568ZM16.0124 5.25587C15.2991 5.25587 14.6822 4.99739 14.1616 4.48042C13.6411 3.96345 13.3808 3.35074 13.3808 2.6423C13.3808 1.93385 13.6411 1.32115 14.1616 0.804177C14.6822 0.268059 15.2991 0 16.0124 0C16.7257 0 17.3427 0.268059 17.8632 0.804177C18.3837 1.32115 18.644 1.93385 18.644 2.6423C18.644 3.35074 18.3837 3.96345 17.8632 4.48042C17.3427 4.99739 16.7257 5.25587 16.0124 5.25587Z" fill="#F2F4F7"/>
<path d="M29.3881 22C27.7879 22 26.3902 21.6745 25.1949 21.0235C23.9996 20.3725 23.0742 19.4439 22.4187 18.2376C21.7633 17.0313 21.4355 15.624 21.4355 14.0157V0.689295H25.9179V8.53003H26.0046C26.2938 8.12794 26.6505 7.78329 27.0746 7.49608C27.518 7.18973 28 6.95997 28.5205 6.80679C29.0603 6.65361 29.629 6.57702 30.2267 6.57702C31.6341 6.57702 32.8679 6.89295 33.9282 7.5248C34.9886 8.15666 35.8176 9.02785 36.4152 10.1384C37.0322 11.2489 37.3406 12.5509 37.3406 14.0444C37.3406 15.1932 37.1575 16.2559 36.7912 17.2324C36.4249 18.2089 35.8947 19.0609 35.2007 19.7885C34.5259 20.497 33.6969 21.0426 32.7137 21.4256C31.7497 21.8085 30.6412 22 29.3881 22ZM29.3881 18.1514C30.0821 18.1514 30.6798 17.9887 31.181 17.6632C31.6823 17.3185 32.0678 16.859 32.3377 16.2846C32.6269 15.691 32.7715 15.0305 32.7715 14.3029C32.7715 13.5753 32.6269 12.9243 32.3377 12.3499C32.0678 11.7755 31.6823 11.3255 31.181 11C30.6798 10.6554 30.0821 10.483 29.3881 10.483C28.694 10.483 28.0867 10.6554 27.5662 11C27.065 11.3255 26.6794 11.7755 26.4095 12.3499C26.1396 12.9243 26.0046 13.5753 26.0046 14.3029C26.0046 15.0305 26.1396 15.691 26.4095 16.2846C26.6794 16.859 27.065 17.3185 27.5662 17.6632C28.0867 17.9887 28.694 18.1514 29.3881 18.1514Z" fill="#F2F4F7"/>
<path d="M39.9923 21.6554V6.92167H44.5036V21.6554H39.9923ZM42.2479 5.25587C41.5346 5.25587 40.9177 4.99739 40.3971 4.48042C39.8766 3.96345 39.6164 3.35074 39.6164 2.6423C39.6164 1.93385 39.8766 1.32115 40.3971 0.804177C40.9177 0.268059 41.5346 0 42.2479 0C42.9612 0 43.5782 0.268059 44.0987 0.804177C44.6192 1.32115 44.8795 1.93385 44.8795 2.6423C44.8795 3.35074 44.6192 3.96345 44.0987 4.48042C43.5782 4.99739 42.9612 5.25587 42.2479 5.25587Z" fill="#F2F4F7"/>
<path d="M55.0741 21.6554C53.5318 21.6554 52.163 21.3394 50.9677 20.7076C49.7724 20.0566 48.8278 19.1854 48.1337 18.094C47.4397 16.9835 47.0927 15.7198 47.0927 14.3029C47.0927 12.886 47.4397 11.6319 48.1337 10.5405C48.8278 9.42994 49.7724 8.54917 50.9677 7.89817C52.163 7.24717 53.5318 6.92167 55.0741 6.92167H57.3008V10.6841H55.2476C54.4958 10.6841 53.8499 10.8468 53.3101 11.1723C52.7703 11.4787 52.3462 11.9095 52.0377 12.4648C51.7485 13.0009 51.6039 13.6136 51.6039 14.3029C51.6039 14.9922 51.7485 15.6144 52.0377 16.1697C52.3462 16.7058 52.7703 17.1366 53.3101 17.4621C53.8499 17.7685 54.4958 17.9217 55.2476 17.9217H57.3008V21.6554H55.0741Z" fill="#F2F4F7"/>
<path d="M65.7461 22C64.4352 22 63.2784 21.6649 62.2759 20.9948C61.2734 20.3246 60.4926 19.4247 59.9335 18.295C59.3744 17.1462 59.0949 15.8538 59.0949 14.4178C59.0949 12.9243 59.4226 11.5936 60.0781 10.4256C60.7336 9.23847 61.659 8.30026 62.8543 7.61097C64.0689 6.92167 65.4955 6.57702 67.1342 6.57702C68.7922 6.57702 70.1996 6.92167 71.3563 7.61097C72.5323 8.28111 73.4288 9.20975 74.0457 10.3969C74.6819 11.5648 75 12.8764 75 14.3316V21.6554H70.6044V19.3003H70.4887C70.2188 19.8172 69.8718 20.2863 69.4477 20.7076C69.0235 21.1097 68.503 21.4256 67.8861 21.6554C67.2884 21.8851 66.5751 22 65.7461 22ZM67.0764 18.1514C67.7511 18.1514 68.3391 17.9887 68.8404 17.6632C69.3609 17.3185 69.7561 16.8494 70.026 16.2559C70.2959 15.6623 70.4309 15.0017 70.4309 14.2742C70.4309 13.5657 70.2959 12.9243 70.026 12.3499C69.7561 11.7755 69.3609 11.3255 68.8404 11C68.3391 10.6554 67.7511 10.483 67.0764 10.483C66.3823 10.483 65.775 10.6554 65.2545 11C64.734 11.3255 64.3388 11.7755 64.0689 12.3499C63.799 12.9243 63.664 13.5657 63.664 14.2742C63.664 15.0017 63.799 15.6623 64.0689 16.2559C64.3388 16.8494 64.734 17.3185 65.2545 17.6632C65.775 17.9887 66.3823 18.1514 67.0764 18.1514Z" fill="#F2F4F7"/>
</svg>
