<svg width="215" height="202" viewBox="0 0 215 202" fill="none" xmlns="http://www.w3.org/2000/svg">
<path d="M84.6951 72.7217L205.256 192.764L84.6951 72.7217Z" fill="white"/>
<path d="M26.1323 114.181C25.5619 115.783 25.1396 117.433 24.8709 119.111C23.0084 131.083 21.3938 142.613 20.642 148.074C20.5211 148.951 20.7526 149.836 21.2852 150.543C21.8182 151.247 22.6092 151.715 23.4854 151.84C23.7954 151.881 24.1079 151.928 24.8141 151.572C25.5224 151.218 26.1381 150.704 26.6119 150.073C27.0854 149.439 27.4039 148.705 27.5417 147.925C28.6386 141.891 29.8973 134.402 30.8783 129.397C30.9503 132.124 31.0241 134.85 31.0993 137.576C31.1543 139.697 31.9415 141.734 33.3279 143.341C34.7145 144.951 36.615 146.032 38.7081 146.4L45.5727 147.615C46.5025 147.779 47.4613 147.61 48.2752 147.13C49.0893 146.651 49.7054 145.9 50.0118 145.009L50.0387 144.936C50.2164 144.425 50.2869 143.881 50.2459 143.341C50.205 142.8 50.0537 142.277 49.8008 141.798C49.5482 141.319 49.1997 140.895 48.7771 140.556C48.3545 140.217 47.8663 139.969 47.3433 139.826L39.6271 137.672C39.5677 132.037 39.5077 126.401 39.4465 120.765L46.3407 119.098L45.2277 127.627C45.1417 128.308 45.2897 128.998 45.6477 129.584C46.0056 130.17 46.552 130.618 47.1979 130.854L47.276 130.881C47.6925 131.036 48.1373 131.097 48.5798 131.06C49.0226 131.024 49.4517 130.891 49.8371 130.671C50.2228 130.452 50.5553 130.15 50.8114 129.788C51.0671 129.426 51.2404 129.012 51.3188 128.576C52.0232 124.654 52.7256 120.732 53.4266 116.809H53.4105H53.3888C53.3698 116.809 54.1974 113.487 53.5533 112.32C52.2407 109.972 44.12 99.6322 30.9807 100.988C29.2748 101.184 27.345 110.744 26.1323 114.181Z" fill="#E9CF85" stroke="#091A3C" stroke-width="1.5" stroke-linecap="round" stroke-linejoin="round"/>
<path d="M81.3706 34.2155C81.3706 41.7594 81.3706 49.304 81.3706 56.8494C76.6204 59.0747 71.4746 60.3355 66.2319 60.5587C63.4713 60.6715 60.7068 60.4912 57.9845 60.0208C57.8604 62.0191 57.6421 65.2442 57.2865 69.2224C56.5478 77.4071 56.0468 79.5374 55.9388 84.516C55.8042 90.3635 56.424 90.5707 56.3268 95.3178C56.1995 100.679 55.3195 105.995 53.7125 111.112C53.6613 111.935 53.8878 111.757 53.0496 112.656C51.5995 114.205 48.7048 115.362 47.5567 115.31C38.5627 114.904 36.4011 119.367 31.3855 117.032C28.2078 115.55 25.2511 112.389 25.278 109.369C25.3055 106.142 25.5341 102.92 25.9625 99.7211C26.1621 98.2067 26.4182 96.6438 26.7308 95.0435C27.8069 89.5463 29.4733 84.1808 31.7007 79.0398C31.248 76.385 28.8411 60.7495 39.3418 47.5512C48.8989 35.5552 65.3668 30.3317 81.3706 34.2155Z" fill="#9AADE2" stroke="#091A3C" stroke-width="1.5" stroke-linecap="round" stroke-linejoin="round"/>
<path d="M202.289 68.6414C203.968 63.4802 204.539 58.0245 203.968 52.6284C203.395 47.2323 201.695 42.0165 198.97 37.3196C199.034 36.131 199.277 29.065 193.807 23.4728C187.363 16.8913 178.586 18.0747 177.705 18.2091L116.086 19.7048L93.5129 40.3081C101.942 44.6114 120.517 52.6106 144.436 50.4723C154.843 49.5274 165.007 46.8063 174.489 42.4276C174.032 44.4118 173.775 46.4361 173.713 48.4712C173.585 52.8446 174.422 56.1314 175.364 59.7332C176.224 63.0107 177.345 66.2145 178.718 69.314L202.289 68.6414Z" fill="#9AADE2" stroke="#091A3C" stroke-width="1.5" stroke-linecap="round" stroke-linejoin="round"/>
<path d="M142.615 29.7965C142.615 33.0243 142.592 39.2645 137.9 43.4121C133.513 47.2906 127.774 46.9087 125.606 46.774C124.034 46.6691 120.186 46.3708 116.34 43.7481C112.377 41.0586 107.487 35.394 108.593 29.7965C108.965 27.914 111.122 25.6761 115.427 21.2755C120.548 16.0442 123.153 13.4163 125.606 12.819C130.075 11.7432 135.015 13.4861 138.237 16.5175C142.641 20.673 142.624 26.5904 142.615 29.7965Z" fill="#E9CF85" stroke="#091A3C" stroke-width="1.5" stroke-linecap="round" stroke-linejoin="round"/>
<path d="M132.732 91.6034L134.35 76.9366C134.965 71.35 134.236 64.8678 125.948 64.7144C114.865 64.5128 101.046 64.5908 89.7726 63.6897C92.5236 59.7116 97.6305 54.0525 100.381 50.0744L78.1499 48.8989L86.0646 62.3474L110.153 74.7875L121.605 78.3163C121.102 82.5015 120.595 86.6868 120.089 90.8718C124.342 90.3365 128.529 90.9662 132.732 91.6034Z" fill="#9AADE2" stroke="#091A3C" stroke-width="1.5" stroke-linecap="round" stroke-linejoin="round"/>
<path d="M143.283 117.607C142.955 118.457 142.311 119.148 141.486 119.537C140.66 119.925 139.718 119.98 138.852 119.692L135.656 118.616L135.059 118.412C130.707 116.938 125.825 115.232 125.626 114.955C125.503 114.724 125.398 114.484 125.31 114.237C124.538 112.295 122.764 107.222 122.764 107.222L120.32 112.099L120.069 112.602L114.005 110.921C114.169 110.482 114.333 110.041 114.494 109.603C115.363 107.284 116.229 104.963 117.092 102.639L119.396 96.4527L119.902 93.7631C119.846 93.7631 118.693 93.7388 118.14 92.7892C118.114 92.7434 118.088 92.6957 118.064 92.6467C117.552 91.5521 118.477 90.3255 119.68 90.4088C121.875 90.5613 124.119 90.687 126.42 90.7854C128.655 90.8804 130.845 90.9441 132.987 90.9765C133.318 90.9806 133.639 91.0756 133.92 91.2509C134.201 91.4262 134.427 91.6751 134.576 91.9702C134.725 92.2656 134.787 92.5958 134.76 92.9248C134.734 93.2538 134.614 93.5688 134.421 93.8356L134.392 93.8733C134.087 94.2508 133.701 94.5567 133.265 94.7697C132.829 94.9824 132.352 95.0969 131.866 95.1051C131.696 98.0781 131.526 101.048 131.36 104.016L142.247 113.613C142.808 114.093 143.209 114.734 143.394 115.448C143.578 116.162 143.54 116.916 143.283 117.607Z" fill="#FF8A57" stroke="#091A3C" stroke-width="1.5" stroke-linecap="round" stroke-linejoin="round"/>
<path d="M137.432 118.31C136.291 119.924 135.085 120.394 134.515 120.55C131.55 121.357 127.573 118.95 125.328 114.229C124.552 112.288 122.779 107.215 122.779 107.215L120.335 112.091L114.511 109.595C115.378 107.277 116.244 104.955 117.11 102.631C118.09 102.816 119.056 103.086 119.99 103.438C123.695 104.842 124.374 106.704 128 109.415C131.977 112.373 133.768 112.422 135.861 115.394C136.499 116.301 137.026 117.279 137.432 118.31Z" fill="#091A3C"/>
<path d="M153.116 154.721C152.873 161.155 152.364 175.189 141.556 186.859C128.348 201.115 110.387 200.907 106.873 200.869C93.3283 200.72 83.8929 194.847 82.0346 193.655C69.6354 185.693 60.6523 171.168 60.628 154.721C60.604 136.337 71.7888 124.52 73.7807 122.484C75.7725 120.448 87.7765 108.573 106.873 108.573C123.601 108.573 134.62 117.793 138.328 120.894C141.427 123.487 146.358 127.699 149.768 134.999C153.476 142.943 153.288 150.049 153.116 154.721Z" fill="#F0B7C6" stroke="#091A3C" stroke-width="1.5" stroke-linecap="round" stroke-linejoin="round"/>
<path d="M137.657 29.8018C137.657 32.0853 137.637 36.5098 134.315 39.4472C131.207 42.1961 127.139 41.9296 125.606 41.8303C123.261 41.7256 120.99 40.9815 119.041 39.6783C115.86 37.5106 112.506 33.223 113.551 29.7936C113.946 28.4998 114.628 28.4487 117.49 25.8021C122.486 21.1598 122.185 19.632 124.719 18.5909C127.719 17.3564 131.845 17.9832 134.555 20.3849C137.681 23.1689 137.663 27.1981 137.657 29.8018Z" stroke="#091A3C" stroke-width="1.5" stroke-linecap="round" stroke-linejoin="round"/>
<path d="M107.874 114.644C107.78 114.967 107.628 115.27 107.426 115.54C107.145 115.916 106.77 116.214 106.343 116.407C105.913 116.6 105.442 116.68 104.973 116.64L96.1966 115.903C95.2045 115.819 94.2475 115.491 93.4134 114.948C92.5764 114.405 91.8916 113.664 91.4116 112.791L87.2471 105.163L86.9047 104.536L80.6154 108.896C80.2057 109.184 79.7053 109.319 79.2063 109.28C78.7058 109.24 78.235 109.027 77.875 108.678L75.6435 106.526C75.2311 106.131 74.9929 105.589 74.9812 105.018C74.9695 104.448 75.1854 103.896 75.5814 103.484C79.7579 99.0891 83.9459 94.5956 88.1426 90.0033C90.1737 87.7815 92.1814 85.5653 94.1656 83.3543C94.0017 82.9911 93.9724 82.5821 94.0807 82.1993C94.1919 81.8165 94.4319 81.4846 94.7626 81.2617C94.944 81.153 95.1489 81.0884 95.3626 81.0735C95.5967 81.0577 95.8308 81.0928 96.0532 81.1764C96.2727 81.2599 96.4717 81.39 96.6356 81.5577C98.5086 83.4046 100.402 85.3295 102.319 87.3324C103.976 89.0645 105.576 90.7826 107.116 92.486C107.265 92.6473 107.373 92.8413 107.435 93.0526C107.493 93.2638 107.502 93.4862 107.461 93.7018C107.42 93.9174 107.326 94.1199 107.192 94.2932C107.057 94.4668 106.882 94.6058 106.686 94.6996H106.665C106.329 94.8402 105.954 94.8647 105.603 94.7697C105.249 94.6748 104.938 94.4656 104.719 94.1752L100.039 96.7923L100.546 108.39L106.393 111.368C106.981 111.658 107.452 112.143 107.722 112.741C107.991 113.339 108.043 114.011 107.874 114.644Z" fill="#FF8A57" stroke="#091A3C" stroke-width="1.5" stroke-linecap="round" stroke-linejoin="round"/>
<path d="M115.846 64.7843L89.5972 63.5147L85.219 49.8994L74.8995 63.5363C72.5977 66.5757 72.7084 70.8819 75.328 73.655C76.0737 74.4489 76.9783 75.0771 77.983 75.4993C78.988 75.9215 80.0711 76.1281 81.1598 76.1053L104.069 75.7854L97.1946 81.9394C100.159 85.3419 103.496 88.3596 106.525 91.6923L120.947 80.3201C121.447 79.8818 124.239 77.3614 124.181 73.6442C124.128 69.6015 120.739 65.7689 115.846 64.7843Z" fill="#9AADE2" stroke="#091A3C" stroke-width="1.5" stroke-linecap="round" stroke-linejoin="round"/>
<path d="M115.009 6.33128C109.598 2.55974 103.027 0.809549 96.4542 1.38749C88.1397 2.165 82.2339 6.58403 78.5004 10.608C77.1744 12.0389 76.0523 13.6453 75.1665 15.3821C73.4626 15.1428 71.7391 15.0724 70.0212 15.1723C67.617 15.2611 62.6471 15.4414 58.3994 19.2071C52.9094 24.0699 52.9793 31.0418 53.0089 32.1498C53.1734 38.2877 56.6557 43.304 60.7577 46.1014C64.6038 48.7238 68.4499 49.0224 70.0212 49.1273C71.8729 49.2856 73.7368 49.2135 75.5706 48.9122L79.0907 54.765C80.9081 57.7903 83.4455 60.3233 86.4745 62.1418C89.5035 63.9601 92.9335 65.0079 96.463 65.1931L99.9339 65.376C105.562 65.6712 111.081 63.7597 115.313 60.0492C119.548 56.3387 122.159 51.1238 122.592 45.5179L124.125 25.6138C124.427 21.885 123.745 18.1426 122.144 14.7591C120.546 11.3759 118.085 8.47009 115.009 6.33128Z" fill="#E9CF85" stroke="#091A3C" stroke-width="1.5" stroke-linecap="round" stroke-linejoin="round"/>
<path d="M101.368 35.9021C102.266 35.9021 102.995 35.176 102.995 34.2801C102.995 33.3846 102.266 32.6582 101.368 32.6582C100.472 32.6582 99.7437 33.3846 99.7437 34.2801C99.7437 35.176 100.472 35.9021 101.368 35.9021Z" fill="white" stroke="#091A3C" stroke-width="1.5" stroke-linecap="round" stroke-linejoin="round"/>
<path d="M114.321 35.62C115.217 35.62 115.945 34.8939 115.945 33.9981C115.945 33.1025 115.217 32.3765 114.321 32.3765C113.423 32.3765 112.694 33.1025 112.694 33.9981C112.694 34.8939 113.423 35.62 114.321 35.62Z" fill="white" stroke="#091A3C" stroke-width="1.5" stroke-linecap="round" stroke-linejoin="round"/>
<path d="M106.665 35.0573C106.504 35.334 106.428 35.6522 106.448 35.9716C106.469 36.2912 106.583 36.5974 106.779 36.8516C106.917 37.0108 107.086 37.1406 107.276 37.2332C107.467 37.3255 107.674 37.3787 107.885 37.3895L109.19 38.0081C109.351 38.0852 109.536 38.1124 109.711 38.0864C109.89 38.0604 110.057 37.9821 110.191 37.8617C110.323 37.7413 110.417 37.5841 110.461 37.41C110.504 37.2358 110.496 37.0526 110.434 36.8837L109.07 33.0456C108.664 31.8906 108.055 30.8168 107.271 29.8745L107.256 29.8555C106.761 29.272 105.055 27.2492 102.404 26.7542C100.788 26.4883 99.1288 26.7645 97.686 27.5396" stroke="#091A3C" stroke-width="1.5" stroke-linecap="round" stroke-linejoin="round"/>
<path d="M111.699 40.5312C111.637 40.8743 111.549 41.2117 111.429 41.5399C111.277 42.0366 111.028 42.4994 110.701 42.9035C110.101 43.5545 109.22 43.6404 108.655 43.6942C108.4 43.7184 106.518 43.9013 105.518 42.7527C105.289 42.4705 105.093 42.1637 104.935 41.8385C104.774 41.5039 104.648 41.153 104.561 40.7922L111.699 40.5312Z" fill="#091A3C"/>
<path d="M117.198 27.7632L115.12 27.9785" stroke="#091A3C" stroke-width="1.5" stroke-linecap="round" stroke-linejoin="round"/>
<path d="M199.546 74.0908L192.979 86.926C192.786 87.3038 192.675 87.7175 192.648 88.1406C192.625 88.564 192.686 88.988 192.836 89.3856C192.982 89.7833 193.21 90.1462 193.506 90.4515C193.801 90.7568 194.156 90.9979 194.548 91.1598C195.268 91.4534 196.07 91.4657 196.795 91.1939C197.524 90.9222 198.121 90.3864 198.469 89.6939L205.613 75.4384L199.546 74.0908Z" fill="#FBF0C4" stroke="#091A3C" stroke-width="1.5" stroke-linecap="round" stroke-linejoin="round"/>
<path d="M104.083 75.7935L110.314 70.5806" stroke="#091A3C" stroke-width="1.5" stroke-linecap="round" stroke-linejoin="round"/>
<path d="M178.718 69.3138L172.888 83.2844C172.595 83.986 172.59 84.774 172.87 85.4802C173.151 86.1864 173.699 86.7544 174.395 87.0633C175.089 87.3709 175.873 87.3978 176.584 87.1384C177.295 86.8789 177.878 86.3533 178.209 85.6727L182.031 77.7893L199.549 78.1256L205.613 85.1833L203.079 90.4418C202.853 90.9061 202.736 91.4142 202.731 91.9296C202.728 92.445 202.839 92.9549 203.052 93.423C203.269 93.8911 203.588 94.3057 203.983 94.637C204.378 94.9684 204.844 95.2083 205.341 95.3397C206.02 95.5177 206.734 95.4893 207.396 95.2582C208.054 95.0271 208.631 94.604 209.049 94.0433L211.979 90.1029C212.959 88.7839 213.48 87.1816 213.462 85.5401C213.445 83.8983 212.892 82.3074 211.885 81.0089L202.292 68.6362L178.718 69.3138Z" fill="#E9CF85" stroke="#091A3C" stroke-width="1.5" stroke-linecap="round" stroke-linejoin="round"/>
<path d="M79.3762 42.5134C76.0367 45.4721 71.6705 45.1816 70.0211 45.0741C67.5045 44.9616 65.0666 44.1657 62.9703 42.7717C59.8494 40.6413 57.1999 36.8248 57.0758 32.1554C57.0545 31.3189 57.0003 26.0066 61.1781 22.3055C64.4122 19.4412 68.1855 19.3012 70.0211 19.2367C72.072 19.1613 76.3925 19.0026 79.6349 22.0501" stroke="#091A3C" stroke-width="1.5" stroke-linecap="round" stroke-linejoin="round"/>
<path d="M174.489 42.4276L172.903 32.5669" stroke="#091A3C" stroke-width="1.5" stroke-linecap="round" stroke-linejoin="round"/>
<path d="M35.4333 177.608H59.4826" stroke="#091A3C" stroke-width="1.5" stroke-linecap="round" stroke-linejoin="round"/>
<path d="M44.9531 172.405H56.7256" stroke="#091A3C" stroke-width="1.5" stroke-linecap="round" stroke-linejoin="round"/>
<path d="M94.1655 83.3574L99.0295 88.2121" stroke="#091A3C" stroke-width="1.5" stroke-linecap="round" stroke-linejoin="round"/>
<path d="M104.719 94.1881L102.547 91.7998" stroke="#091A3C" stroke-width="1.5" stroke-linecap="round" stroke-linejoin="round"/>
<path d="M119.913 93.7798L124.631 94.1512" stroke="#091A3C" stroke-width="1.5" stroke-linecap="round" stroke-linejoin="round"/>
<path d="M131.743 95.1593L130.022 94.936" stroke="#091A3C" stroke-width="1.5" stroke-linecap="round" stroke-linejoin="round"/>
<path d="M112.954 86.5713C112.916 86.5362 112.881 86.7677 112.843 86.7326L103.071 77.0928C104.198 82.022 105.322 86.9532 106.442 91.8862" stroke="#091A3C" stroke-width="1.5" stroke-linecap="round" stroke-linejoin="round"/>
<path d="M112.843 86.7188L109.024 71.7021L118.904 81.7884" stroke="#091A3C" stroke-width="1.5" stroke-linecap="round" stroke-linejoin="round"/>
<path d="M104.549 40.5771C104.812 41.0936 105.076 41.6099 105.336 42.1265L110.821 42.2557C111.09 41.6719 111.359 41.0854 111.628 40.502L104.549 40.5771Z" fill="white" stroke="#091A3C" stroke-width="1.5" stroke-linecap="round" stroke-linejoin="round"/>
<path d="M132.998 90.9903L120.888 85.5974L133.616 83.1337L123.809 76.8557L134.365 73.3457" stroke="#091A3C" stroke-width="1.5" stroke-linecap="round" stroke-linejoin="round"/>
<path d="M132.717 90.982L136.94 86.7135C137.131 86.5218 137.362 86.3766 137.616 86.2889C137.871 86.2013 138.143 86.1738 138.409 86.2083C138.676 86.243 138.933 86.3389 139.156 86.4885C139.381 86.6384 139.566 86.8376 139.7 87.0711C139.838 87.3075 139.917 87.5722 139.931 87.8442C139.946 88.1165 139.896 88.3886 139.788 88.6384C139.677 88.8882 139.513 89.1088 139.302 89.2827C139.091 89.4568 138.843 89.5789 138.576 89.6397L132.717 90.982Z" stroke="#091A3C" stroke-width="1.5" stroke-linecap="round" stroke-linejoin="round"/>
<path d="M138.483 93.9654L132.94 90.9019" stroke="#091A3C" stroke-width="1.5" stroke-linecap="round" stroke-linejoin="round"/>
<path d="M106.489 91.7624L112.31 90.2725C112.574 90.2056 112.846 90.2 113.109 90.2558C113.373 90.3119 113.621 90.4282 113.832 90.5954C114.043 90.7625 114.213 90.9761 114.33 91.2198C114.444 91.4632 114.499 91.7299 114.493 91.999C114.488 92.2708 114.417 92.5372 114.289 92.7768C114.16 93.0164 113.978 93.2227 113.756 93.3796C113.534 93.5362 113.276 93.6391 113.007 93.6794C112.738 93.72 112.462 93.6972 112.205 93.6131L106.489 91.7624Z" stroke="#091A3C" stroke-width="1.5" stroke-linecap="round" stroke-linejoin="round"/>
<path d="M109.893 97.2814L106.724 91.8105" stroke="#091A3C" stroke-width="1.5" stroke-linecap="round" stroke-linejoin="round"/>
<path d="M83.0854 95.8506C84.2824 98.7464 85.4794 101.641 86.6764 104.536L80.5364 108.928C80.1471 109.205 79.673 109.338 79.1986 109.303C78.723 109.268 78.2744 109.068 77.9317 108.737L75.5731 106.461C75.3803 106.275 75.2261 106.053 75.1195 105.807C75.013 105.561 74.9562 105.297 74.9521 105.029C74.948 104.761 74.9972 104.495 75.0964 104.246C75.1953 103.997 75.3428 103.77 75.5301 103.578L83.0854 95.8506Z" fill="#091A3C"/>
<path d="M30.8782 129.407L30.5334 120.111" stroke="#091A3C" stroke-width="1.5" stroke-linecap="round" stroke-linejoin="round"/>
<path d="M135.305 154.228C135.305 154.228 142.185 161.921 135.167 169.474" stroke="#091A3C" stroke-width="1.5" stroke-linecap="round" stroke-linejoin="round"/>
<path d="M138.067 159.861C138.995 160.96 141.925 164.136 146.739 164.942C148.474 165.229 150.251 165.182 151.969 164.805" stroke="#091A3C" stroke-width="1.5" stroke-linecap="round" stroke-linejoin="round"/>
<path d="M32.5092 86.9283C31.9121 89.3824 30.5653 91.5904 28.6551 93.2465C29.0915 96.2832 27.8465 98.8679 25.9597 99.7018C26.1593 98.1874 26.4154 96.6248 26.7279 95.0245C27.8061 89.5334 29.4734 84.1744 31.7005 79.0396C32.8434 81.5059 33.1278 84.2823 32.5092 86.9283Z" fill="#091A3C"/>
<path d="M57.9791 60.0097L48.4729 56.438" stroke="#091A3C" stroke-width="1.5" stroke-linecap="round" stroke-linejoin="round"/>
<path d="M199.107 37.457C200.322 40.9525 200.904 44.6355 200.825 48.3343L199.107 37.457Z" fill="#60A6F4"/>
<path d="M199.107 37.457C200.322 40.9525 200.904 44.6355 200.825 48.3343" stroke="#091A3C" stroke-width="1.5" stroke-linecap="round" stroke-linejoin="round"/>
<path d="M123.417 16.0115C121.992 7.4908 111.441 3.34848 109.94 2.73255C102.96 -0.126494 96.7321 1.02998 94.1069 1.55708C86.0237 3.17112 77.495 8.38636 75.2793 15.3985C77.7052 15.7912 80.3783 16.7432 82.6523 18.8709C83.1586 19.3454 83.6239 19.8608 84.0424 20.4122C84.458 20.4577 84.894 20.5062 85.3477 20.5518C85.3477 20.5518 96.4658 11.4742 103.542 12.8191C110.616 14.1638 109.603 23.5777 109.603 23.5777C112.641 19.1263 116.996 16.7327 120.637 17.6282C121.705 17.9008 122.694 18.4256 123.516 19.1587C123.622 18.1097 123.589 17.0517 123.417 16.0115Z" fill="#9AADE2" stroke="#091A3C" stroke-width="1.5" stroke-linecap="round" stroke-linejoin="round"/>
<path d="M142.744 154.827L148.623 152.364C148.89 152.244 149.177 152.185 149.469 152.191C149.759 152.194 150.046 152.264 150.306 152.393C150.57 152.521 150.798 152.706 150.979 152.933C151.161 153.161 151.29 153.427 151.354 153.708C151.433 154.067 151.407 154.441 151.278 154.786C151.102 155.233 150.772 155.604 150.347 155.835C149.92 156.063 149.428 156.133 148.954 156.034L142.744 154.827Z" fill="white" stroke="#091A3C" stroke-width="1.5" stroke-linecap="round" stroke-linejoin="round"/>
<path d="M149.443 154.651C149.741 154.651 149.981 154.409 149.981 154.114C149.981 153.816 149.741 153.573 149.443 153.573C149.144 153.573 148.904 153.816 148.904 154.114C148.904 154.409 149.144 154.651 149.443 154.651Z" fill="white" stroke="#091A3C" stroke-width="1.5" stroke-linecap="round" stroke-linejoin="round"/>
<path d="M153.142 148.764C153.013 148.384 151.968 145.442 148.986 144.46C147.836 144.095 146.607 144.065 145.442 144.372" stroke="#091A3C" stroke-width="1.5" stroke-linecap="round" stroke-linejoin="round"/>
<path d="M73.657 81.0226C76.1583 79.8182 78.5728 78.4415 80.8816 76.9019C85.848 73.5871 90.2964 69.5613 94.0893 64.9544C92.5148 64.6494 90.8876 64.3741 89.2019 64.1284C84.4637 63.4435 79.6817 63.0768 74.8911 63.0312C73.4904 65.3167 72.5732 67.864 72.196 70.5165C71.7187 74.0861 72.2235 77.7177 73.657 81.0226Z" fill="#86AAB4" stroke="#091A3C" stroke-width="1.5" stroke-linecap="round" stroke-linejoin="round"/>
<path d="M74.824 63.0312C74.2688 66.2427 73.9858 70.9793 75.7889 76.0788C76.1199 77.0182 76.5106 77.9354 76.9586 78.8251" stroke="#091A3C" stroke-width="1.5" stroke-linecap="round" stroke-linejoin="round"/>
<path d="M81.9847 76.009C80.5624 74.8376 79.3124 73.4743 78.2682 71.9584C76.4485 69.2928 75.2927 66.2322 74.8965 63.0312C74.8965 63.0312 84.2528 72.4452 86.2517 72.9831" stroke="#091A3C" stroke-width="1.5" stroke-linecap="round" stroke-linejoin="round"/>
<path d="M90.5189 68.7298L75.3091 63.0977" stroke="#091A3C" stroke-width="1.5" stroke-linecap="round" stroke-linejoin="round"/>
<path d="M42.3145 44.1542L50.2976 41.6823L57.4534 43.3284C56.0788 41.1353 54.7024 38.9378 53.3243 36.7358C49.2253 38.5062 45.4919 41.0216 42.3145 44.1542Z" fill="#091A3C"/>
<path d="M70.0212 49.1271L78.3737 52.944L75.5706 48.9121L70.0212 49.1271Z" fill="#091A3C"/>
<path d="M173.336 33.7158C173.119 35.7465 172.464 38.5574 170.31 40.5828C168.489 42.2933 166.725 42.3929 163.426 43.8804C160.751 45.0962 158.252 46.6667 155.996 48.5495C158.744 47.9041 161.697 47.0971 164.805 46.0777C168.229 44.9536 171.351 43.7349 174.161 42.506L173.336 33.7158Z" fill="#091A3C"/>
<path d="M203.98 59.0797C202.964 57.1393 202.195 55.0802 201.688 52.9496C200.989 49.9909 201.147 48.3933 200.679 44.9829C200.31 42.4058 199.727 39.8644 198.934 37.3843C202.906 43.891 204.673 51.4986 203.98 59.085V59.0797Z" fill="#091A3C"/>
<path d="M84.0422 20.4038C84.0422 20.4038 85.0958 21.8133 85.927 25.4551L84.0422 20.4038Z" fill="#A07DB2"/>
<path d="M84.0422 20.4038C84.0422 20.4038 85.0958 21.8133 85.927 25.4551" stroke="#091A3C" stroke-width="1.5" stroke-linecap="round" stroke-linejoin="round"/>
</svg>
