<svg xmlns="http://www.w3.org/2000/svg" width="32" height="32" viewBox="0 0 32 32" fill="none">
<path d="M32 27.0991C32 29.8058 29.8058 32 27.0991 32C24.3924 32 22.1982 29.8058 22.1982 27.0991C22.1982 24.3924 24.3924 22.1982 27.0991 22.1982C29.8058 22.1982 32 24.3924 32 27.0991Z" fill="#091A3C"/>
<path d="M8.64866 4.9009C8.64866 2.19421 10.8429 0 13.5496 0C16.2563 0 18.4505 2.19421 18.4505 4.9009V27.0991C18.4505 29.8058 16.2563 32 13.5496 32C10.8429 32 8.64866 29.8058 8.64866 27.0991V4.9009Z" fill="#091A3C"/>
<path d="M4.9009 18.7387C2.19421 18.7387 1.18313e-07 16.5445 0 13.8378C-1.18313e-07 11.1311 2.19421 8.93694 4.9009 8.93694L27.0991 8.93694C29.8058 8.93694 32 11.1311 32 13.8378C32 16.5445 29.8058 18.7387 27.0991 18.7387L4.9009 18.7387Z" fill="#091A3C"/>
</svg>