<svg width="48" height="49" viewBox="0 0 48 49" fill="none" xmlns="http://www.w3.org/2000/svg">
<path d="M28.0183 24.4639C28.0183 22.3122 26.2194 20.5678 24 20.5678C21.7808 20.5678 19.9817 22.3122 19.9817 24.4639C19.9817 26.6157 21.7808 28.3601 24 28.3601C26.2194 28.3601 28.0183 26.6157 28.0183 24.4639Z" fill="#53C1DE"/>
<path fill-rule="evenodd" clip-rule="evenodd" d="M37.0505 17.2306C37.8992 13.8872 38.9658 7.68722 35.2056 5.58524C31.463 3.49242 26.5927 7.50264 24.0209 9.90978C21.4566 7.52663 16.4495 3.53355 12.6924 5.6422C8.95126 7.74204 10.105 13.8392 10.9724 17.2035C7.48247 18.1646 1.5 20.2346 1.5 24.4639C1.5 28.6811 7.47624 30.9332 10.9455 31.8933C10.0749 35.2763 8.97894 41.2864 12.7249 43.3815C16.4959 45.4898 21.4875 41.5918 24.083 39.1583C26.6713 41.5796 31.4949 45.5031 35.2383 43.4021C38.9935 41.2945 38.0154 35.1776 37.1479 31.7937C40.5109 30.8315 46.5 28.6285 46.5 24.4639C46.5 20.2752 40.4855 18.1884 37.0505 17.2306ZM36.6244 30.0004C36.0548 28.2524 35.286 26.3934 34.3456 24.4731C35.2432 22.5982 35.9821 20.7632 36.5357 19.0263C39.0538 19.7341 44.5778 21.3519 44.5778 24.4639C44.5778 27.6049 39.277 29.2381 36.6244 30.0004ZM34.2749 41.789C31.4821 43.3565 27.3332 39.6045 25.4218 37.8213C26.6898 36.4766 27.957 34.9133 29.1937 33.1774C31.3693 32.9903 33.4246 32.6843 35.2884 32.2666C35.8989 34.6601 37.0803 40.2144 34.2749 41.789ZM13.6854 41.7666C10.8921 40.205 12.1689 34.8419 12.8093 32.35C14.6525 32.7453 16.6929 33.0297 18.8736 33.2012C20.1185 34.8998 21.4224 36.4612 22.7364 37.8285C21.1129 39.3511 16.4918 43.3355 13.6854 41.7666ZM3.42223 24.4639C3.42223 21.311 8.9131 19.705 11.4886 18.9989C12.0518 20.7748 12.7904 22.6316 13.6818 24.5092C12.7789 26.4149 12.0297 28.3012 11.4613 30.098C9.00554 29.4164 3.42223 27.6187 3.42223 24.4639ZM13.6556 7.25531C16.4603 5.68125 20.8121 9.51474 22.6738 11.2402C21.3666 12.6013 20.0747 14.1509 18.8405 15.8397C16.7241 16.0299 14.6981 16.3354 12.8356 16.7445C12.1369 14.0311 10.8539 8.82768 13.6556 7.25531ZM30.5689 17.8656C32.0048 18.0414 33.3803 18.275 34.6721 18.561C34.2843 19.7661 33.801 21.0262 33.2318 22.318C32.4066 20.7999 31.5208 19.3124 30.5689 17.8656ZM24.0215 12.5722C24.9081 13.5035 25.7962 14.5435 26.6697 15.6717C24.8978 15.5905 23.123 15.5901 21.3511 15.6705C22.2253 14.5527 23.1209 13.5143 24.0215 12.5722ZM14.7848 22.3167C14.2249 21.0293 13.746 19.7636 13.3548 18.5413C14.6388 18.2626 16.008 18.035 17.4345 17.8622C16.4799 19.3057 15.5956 20.7927 14.7848 22.3167ZM17.4755 31.1986C16.0018 31.0391 14.6119 30.823 13.3283 30.5521C13.7257 29.3082 14.2152 28.0152 14.7869 26.7003C15.609 28.2399 16.5067 29.7413 17.4755 31.1986ZM24.0747 36.4872C23.1636 35.5339 22.2548 34.4796 21.3672 33.3456C23.1493 33.4135 24.9347 33.4136 26.7165 33.3365C25.8402 34.4912 24.9553 35.5471 24.0747 36.4872ZM33.2501 26.6333C33.8515 27.9625 34.3586 29.2485 34.7613 30.4714C33.4564 30.7601 32.0478 30.9926 30.5635 31.1652C31.5225 29.6911 32.4223 28.1804 33.2501 26.6333ZM28.1209 31.3911C25.3952 31.5799 22.6523 31.5779 19.9257 31.4066C18.3763 29.2122 16.9972 26.9044 15.8066 24.5087C16.9913 22.1178 18.3605 19.8146 19.9026 17.6237C22.6313 17.4237 25.3767 17.4232 28.1054 17.6249C29.6341 19.8157 31.0013 22.1129 32.2135 24.4822C31.0156 26.8719 29.6393 29.1797 28.1209 31.3911ZM34.2455 7.19989C37.0509 8.76881 35.8021 14.3409 35.1893 16.7638C33.3224 16.3462 31.295 16.0353 29.1724 15.8422C27.9359 14.1351 26.6547 12.5828 25.3686 11.2392C27.2543 9.47661 31.4671 5.64633 34.2455 7.19989Z" fill="#53C1DE"/>
</svg>
