<svg width="1148" height="448" viewBox="0 0 1148 448" fill="none" xmlns="http://www.w3.org/2000/svg">
<g clip-path="url(#clip0_279_31700)">
<rect x="381" width="370.109" height="926.389" rx="185.054" fill="#091A3C"/>
<rect x="255" y="24" width="348" height="870" rx="174" fill="#091A3C"/>
<rect y="208" width="400" height="1001.21" rx="200" fill="#091A3C"/>
<rect x="739.449" y="17.8154" width="308.003" height="775.607" rx="154.001" transform="rotate(19.1204 739.449 17.8154)" fill="#091A3C"/>
<rect x="877" y="219" width="271" height="680" rx="135.5" fill="#091A3C"/>
<circle cx="725.5" cy="97.5" r="78.5" fill="#091A3C"/>
<circle cx="218.5" cy="224.5" r="108.5" fill="#091A3C"/>
<circle cx="973" cy="213" r="60" fill="#091A3C"/>
<path d="M427.713 63C427.713 63 422.468 67.1635 420.713 72L427.713 63Z" fill="#FCD76C"/>
<path d="M574.448 155.505C712.214 155.505 823.895 144.215 823.895 130.288C823.895 116.361 712.214 105.071 574.448 105.071C436.682 105.071 325 116.361 325 130.288C325 144.215 436.682 155.505 574.448 155.505Z" stroke="#EAECF0" stroke-width="1.5" stroke-miterlimit="10"/>
<path d="M574.448 180.722C712.214 180.722 823.895 169.432 823.895 155.505C823.895 141.578 712.214 130.288 574.448 130.288C436.682 130.288 325 141.578 325 155.505C325 169.432 436.682 180.722 574.448 180.722Z" stroke="#EAECF0" stroke-width="1.5" stroke-miterlimit="10"/>
<path d="M574.448 205.94C712.214 205.94 823.895 194.65 823.895 180.723C823.895 166.795 712.214 155.505 574.448 155.505C436.682 155.505 325 166.795 325 180.723C325 194.65 436.682 205.94 574.448 205.94Z" stroke="#EAECF0" stroke-width="1.5" stroke-miterlimit="10"/>
<path d="M574.448 231.131C712.214 231.131 823.895 219.841 823.895 205.913C823.895 191.986 712.214 180.696 574.448 180.696C436.682 180.696 325 191.986 325 205.913C325 219.841 436.682 231.131 574.448 231.131Z" stroke="#EAECF0" stroke-width="1.5" stroke-miterlimit="10"/>
<path d="M574.448 256.348C712.214 256.348 823.895 245.058 823.895 231.131C823.895 217.204 712.214 205.913 574.448 205.913C436.682 205.913 325 217.204 325 231.131C325 245.058 436.682 256.348 574.448 256.348Z" stroke="#EAECF0" stroke-width="1.5" stroke-miterlimit="10"/>
<path d="M574.448 281.565C712.214 281.565 823.895 270.275 823.895 256.348C823.895 242.421 712.214 231.131 574.448 231.131C436.682 231.131 325 242.421 325 256.348C325 270.275 436.682 281.565 574.448 281.565Z" stroke="#EAECF0" stroke-width="1.5" stroke-miterlimit="10"/>
<path d="M574.448 306.783C712.214 306.783 823.895 295.493 823.895 281.565C823.895 267.638 712.214 256.348 574.448 256.348C436.682 256.348 325 267.638 325 281.565C325 295.493 436.682 306.783 574.448 306.783Z" stroke="#EAECF0" stroke-width="1.5" stroke-miterlimit="10"/>
<path d="M574.448 332C712.214 332 823.895 320.71 823.895 306.783C823.895 292.855 712.214 281.565 574.448 281.565C436.682 281.565 325 292.855 325 306.783C325 320.71 436.682 332 574.448 332Z" stroke="#EAECF0" stroke-width="1.5" stroke-miterlimit="10"/>
<path d="M933.068 193.829C957.821 195.994 979.643 177.684 981.808 152.931C983.974 128.178 965.663 106.356 940.91 104.191C916.158 102.025 894.336 120.336 892.17 145.089C890.005 169.841 908.315 191.663 933.068 193.829Z" stroke="#EAECF0" stroke-width="1.5" stroke-miterlimit="10"/>
<path d="M892.17 145.089L981.808 152.931" stroke="#EAECF0" stroke-width="1.5" stroke-miterlimit="10"/>
<path d="M940.912 104.171L933.068 193.829" stroke="#EAECF0" stroke-width="1.5" stroke-miterlimit="10"/>
<path d="M933.068 193.829C933.068 193.829 949.74 175.334 951.929 150.317C954.118 125.299 940.911 104.191 940.911 104.191" stroke="#EAECF0" stroke-width="1.5" stroke-miterlimit="10"/>
<path d="M933.068 193.829C933.068 193.829 963.822 186.444 966.869 151.624C969.915 116.804 940.911 104.191 940.911 104.191" stroke="#EAECF0" stroke-width="1.5" stroke-miterlimit="10"/>
<path d="M933.067 193.829C933.067 193.829 919.86 172.72 922.049 147.703C924.238 122.685 940.91 104.191 940.91 104.191" stroke="#EAECF0" stroke-width="1.5" stroke-miterlimit="10"/>
<path d="M933.067 193.829C933.067 193.829 904.063 181.215 907.109 146.396C910.155 111.576 940.91 104.191 940.91 104.191" stroke="#EAECF0" stroke-width="1.5" stroke-miterlimit="10"/>
<path d="M895.14 165.559C900.102 163.931 913.298 160.682 935.796 162.65C958.275 164.617 970.706 170.108 975.33 172.575" stroke="#EAECF0" stroke-width="1.5" stroke-miterlimit="10"/>
<path d="M904.533 180.166C909.389 178.389 918.821 176.219 934.489 177.59C950.019 178.949 958.937 182.664 963.43 185.259" stroke="#EAECF0" stroke-width="1.5" stroke-miterlimit="10"/>
<path d="M898.651 125.425C903.255 127.89 915.687 133.381 938.185 135.35C960.663 137.316 973.859 134.068 978.841 132.441" stroke="#EAECF0" stroke-width="1.5" stroke-miterlimit="10"/>
<path d="M910.438 112.672C914.912 115.264 923.824 119.039 939.492 120.41C955.022 121.769 964.449 119.658 969.325 117.883" stroke="#EAECF0" stroke-width="1.5" stroke-miterlimit="10"/>
<rect x="378.75" y="364.75" width="390.5" height="40.5" rx="7.25" fill="#091A3C" stroke="#EAECF0" stroke-width="1.5"/>
<rect x="378.75" y="404.75" width="390.5" height="40.5" rx="7.25" fill="#091A3C" stroke="#EAECF0" stroke-width="1.5"/>
<path d="M378 78.6859H769.709V357.533C769.709 361.611 766.415 364.905 762.336 364.905H385.399C381.32 364.905 378.026 361.611 378.026 357.533V78.6859H378Z" fill="#091A3C" stroke="#EAECF0" stroke-width="1.5" stroke-miterlimit="10"/>
<path d="M385.399 39H762.362C766.441 39 769.735 42.2941 769.735 46.3725V78.6859H378V46.3986C378 42.3202 381.32 39 385.399 39Z" fill="#091A3C" stroke="#EAECF0" stroke-width="1.5" stroke-miterlimit="10"/>
<path d="M401.87 65.1174C405.335 65.1174 408.144 62.3082 408.144 58.8429C408.144 55.3776 405.335 52.5685 401.87 52.5685C398.405 52.5685 395.595 55.3776 395.595 58.8429C395.595 62.3082 398.405 65.1174 401.87 65.1174Z" fill="#E1DFD8" stroke="#091A3C" stroke-width="1.5" stroke-miterlimit="10"/>
<path d="M423.515 65.1174C426.981 65.1174 429.79 62.3082 429.79 58.8429C429.79 55.3776 426.981 52.5685 423.515 52.5685C420.05 52.5685 417.241 55.3776 417.241 58.8429C417.241 62.3082 420.05 65.1174 423.515 65.1174Z" fill="#E1DFD8" stroke="#091A3C" stroke-width="1.5" stroke-miterlimit="10"/>
<path d="M445.189 65.1174C448.655 65.1174 451.464 62.3082 451.464 58.8429C451.464 55.3776 448.655 52.5685 445.189 52.5685C441.724 52.5685 438.915 55.3776 438.915 58.8429C438.915 62.3082 441.724 65.1174 445.189 65.1174Z" fill="#E1DFD8" stroke="#091A3C" stroke-width="1.5" stroke-miterlimit="10"/>
<path d="M448.692 255.233L455.594 282.841L475.385 262.396L467.568 289.742L494.914 281.926L474.47 301.69L502.051 308.618L474.47 315.52L494.914 335.285L467.568 327.468L475.385 354.814L455.594 334.37L448.692 361.977L441.791 334.37L422 354.814L429.817 327.468L402.471 335.285L422.915 315.52L395.333 308.618L422.915 301.69L402.471 281.926L429.817 289.742L422 262.396L441.791 282.841L448.692 255.233Z" stroke="#091A3C" stroke-width="1.5" stroke-miterlimit="10"/>
<path d="M456.874 320.226H440.509C438.6 320.226 437.084 318.683 437.084 316.801V300.435C437.084 298.527 438.626 297.01 440.509 297.01H456.874C458.783 297.01 460.299 298.553 460.299 300.435V316.801C460.299 318.683 458.783 320.226 456.874 320.226Z" fill="#091A3C"/>
<path d="M456.874 235.215H440.509C439.018 235.215 437.834 234.012 437.834 232.541V216.175C437.834 214.684 439.037 213.5 440.509 213.5H456.874C458.365 213.5 459.549 214.703 459.549 216.175V232.541C459.549 234.012 458.365 235.215 456.874 235.215Z" fill="#F48757" stroke="#091A3C" stroke-width="1.5"/>
<path d="M448.692 255.233L455.594 282.841L475.385 262.396L467.568 289.742L494.914 281.926L474.47 301.69L502.051 308.618L474.47 315.52L494.914 335.285L467.568 327.468L475.385 354.814L455.594 334.37L448.692 361.977L441.791 334.37L422 354.814L429.817 327.468L402.471 335.285L422.915 315.52L395.333 308.618L422.915 301.69L402.471 281.926L429.817 289.742L422 262.396L441.791 282.841L448.692 255.233Z" fill="#80AD79" stroke="#091A3C" stroke-width="1.5" stroke-miterlimit="10"/>
<path d="M456.875 319.476H440.509C439.018 319.476 437.834 318.273 437.834 316.801V300.435C437.834 298.945 439.037 297.76 440.509 297.76H456.875C458.365 297.76 459.549 298.963 459.549 300.435V316.801C459.549 318.273 458.365 319.476 456.875 319.476Z" fill="#091A3C" stroke="#091A3C" stroke-width="1.5"/>
<path d="M475.803 140.071H642.023" stroke="#EAECF0" stroke-width="1.5" stroke-miterlimit="10"/>
<path d="M618.521 156.672C618.521 156.672 623.227 140.071 642.05 140.071C623.227 140.071 618.521 123.47 618.521 123.47" stroke="#EAECF0" stroke-width="1.5" stroke-miterlimit="10"/>
<path d="M475.803 224.331H642.023" stroke="#EAECF0" stroke-width="1.5" stroke-miterlimit="10"/>
<path d="M618.521 240.933C618.521 240.933 623.227 224.331 642.05 224.331C623.227 224.331 618.521 207.73 618.521 207.73" stroke="#EAECF0" stroke-width="1.5" stroke-miterlimit="10"/>
<path d="M522.417 308.618H642.023" stroke="#EAECF0" stroke-width="1.5" stroke-miterlimit="10"/>
<path d="M618.521 325.193C618.521 325.193 623.227 308.592 642.05 308.592C623.227 308.592 618.521 291.991 618.521 291.991" stroke="#EAECF0" stroke-width="1.5" stroke-miterlimit="10"/>
<path d="M456.874 150.955H440.509C439.018 150.955 437.834 149.752 437.834 148.28V131.914C437.834 130.424 439.037 129.239 440.509 129.239H456.874C458.365 129.239 459.549 130.442 459.549 131.914V148.28C459.549 149.752 458.365 150.955 456.874 150.955Z" fill="#F48757" stroke="#091A3C" stroke-width="1.5"/>
<path d="M684.089 166.633C698.758 166.633 710.651 154.741 710.651 140.071C710.651 125.401 698.758 113.509 684.089 113.509C669.419 113.509 657.527 125.401 657.527 140.071C657.527 154.741 669.419 166.633 684.089 166.633Z" fill="#E9CF85" stroke="#091A3C" stroke-width="1.5" stroke-miterlimit="10"/>
<path d="M701.839 146.241C699.277 153.587 692.297 158.868 684.088 158.868C675.879 158.868 668.899 153.587 666.337 146.241" stroke="#091A3C" stroke-width="1.5" stroke-miterlimit="10"/>
<path d="M700.114 145.927C700.114 145.927 701.604 146.711 703.304 146.581" stroke="#091A3C" stroke-width="1.5" stroke-miterlimit="10"/>
<path d="M667.931 145.927C667.931 145.927 666.441 146.711 664.741 146.581" stroke="#091A3C" stroke-width="1.5" stroke-miterlimit="10"/>
<path d="M690.728 141.64C693.082 141.64 694.99 137.613 694.99 132.646C694.99 127.679 693.082 123.653 690.728 123.653C688.375 123.653 686.467 127.679 686.467 132.646C686.467 137.613 688.375 141.64 690.728 141.64Z" fill="#091A3C"/>
<path d="M677.448 141.64C679.801 141.64 681.709 137.613 681.709 132.646C681.709 127.679 679.801 123.653 677.448 123.653C675.094 123.653 673.186 127.679 673.186 132.646C673.186 137.613 675.094 141.64 677.448 141.64Z" fill="#091A3C"/>
<path d="M684.089 250.893C698.758 250.893 710.651 239.001 710.651 224.332C710.651 209.662 698.758 197.77 684.089 197.77C669.419 197.77 657.527 209.662 657.527 224.332C657.527 239.001 669.419 250.893 684.089 250.893Z" fill="#E9CF85" stroke="#091A3C" stroke-width="1.5" stroke-miterlimit="10"/>
<path d="M701.839 230.527C699.277 237.874 692.297 243.155 684.088 243.155C675.879 243.155 668.899 237.874 666.337 230.527" stroke="#091A3C" stroke-width="1.5" stroke-miterlimit="10"/>
<path d="M700.114 230.188C700.114 230.188 701.604 230.972 703.304 230.841" stroke="#091A3C" stroke-width="1.5" stroke-miterlimit="10"/>
<path d="M667.931 230.188C667.931 230.188 666.441 230.972 664.741 230.841" stroke="#091A3C" stroke-width="1.5" stroke-miterlimit="10"/>
<path d="M690.728 225.9C693.082 225.9 694.99 221.874 694.99 216.907C694.99 211.94 693.082 207.913 690.728 207.913C688.375 207.913 686.467 211.94 686.467 216.907C686.467 221.874 688.375 225.9 690.728 225.9Z" fill="#091A3C"/>
<path d="M677.448 225.9C679.801 225.9 681.709 221.874 681.709 216.907C681.709 211.94 679.801 207.913 677.448 207.913C675.094 207.913 673.186 211.94 673.186 216.907C673.186 221.874 675.094 225.9 677.448 225.9Z" fill="#091A3C"/>
<path d="M683.49 313.324V335.18H684.692V313.324C684.509 313.35 684.3 313.35 684.091 313.35C683.882 313.35 683.699 313.324 683.49 313.324Z" fill="#EAECF0" stroke="#EAECF0" stroke-width="0.5"/>
<path d="M684.692 303.912V282.056H683.49V303.912C683.673 303.886 683.882 303.886 684.091 303.886C684.3 303.86 684.509 303.886 684.692 303.912Z" fill="#EAECF0" stroke="#EAECF0" stroke-width="0.5"/>
<path d="M688.797 309.193H710.653V307.991H688.797C688.823 308.174 688.823 308.383 688.823 308.592C688.823 308.801 688.823 309.01 688.797 309.193Z" fill="#EAECF0" stroke="#EAECF0" stroke-width="0.5"/>
<path d="M679.385 308.017H657.529V309.219H679.385C679.359 309.036 679.359 308.827 679.359 308.618C679.359 308.409 679.359 308.2 679.385 308.017Z" fill="#EAECF0" stroke="#EAECF0" stroke-width="0.5"/>
<path d="M681.189 304.853L665.738 289.403L664.902 290.239L680.352 305.69C680.588 305.376 680.875 305.115 681.189 304.853Z" fill="#EAECF0" stroke="#EAECF0" stroke-width="0.5"/>
<path d="M686.992 312.357L702.443 327.807L703.28 326.971L687.829 311.52C687.593 311.834 687.306 312.121 686.992 312.357Z" fill="#EAECF0" stroke="#EAECF0" stroke-width="0.5"/>
<path d="M687.855 305.69L703.305 290.239L702.469 289.403L687.018 304.853C687.306 305.115 687.593 305.376 687.855 305.69Z" fill="#EAECF0" stroke="#EAECF0" stroke-width="0.5"/>
<path d="M680.352 311.52L664.902 326.971L665.738 327.807L681.189 312.357C680.875 312.121 680.588 311.834 680.352 311.52Z" fill="#EAECF0" stroke="#EAECF0" stroke-width="0.5"/>
<path d="M95.8798 278H94.2972V348.129H95.8798V278Z" fill="#EAECF0"/>
<path d="M130.129 313.853V312.27H60V313.853H130.129Z" fill="#EAECF0"/>
<path d="M70.8591 287.7L69.74 288.819L119.328 338.407L120.447 337.288L70.8591 287.7Z" fill="#EAECF0"/>
<path d="M120.429 288.831L119.31 287.712L69.7223 337.3L70.8413 338.42L120.429 288.831Z" fill="#EAECF0"/>
<path d="M95.0889 319.296C98.5441 319.296 101.345 316.495 101.345 313.04C101.345 309.584 98.5441 306.783 95.0889 306.783C91.6337 306.783 88.8327 309.584 88.8327 313.04C88.8327 316.495 91.6337 319.296 95.0889 319.296Z" fill="#EAECF0"/>
<path d="M1083.88 278H1082.3V348.129H1083.88V278Z" fill="#EAECF0"/>
<path d="M1118.13 313.853V312.27H1048V313.853H1118.13Z" fill="#EAECF0"/>
<path d="M1058.86 287.7L1057.74 288.819L1107.33 338.407L1108.45 337.288L1058.86 287.7Z" fill="#EAECF0"/>
<path d="M1108.43 288.831L1107.31 287.712L1057.72 337.3L1058.84 338.42L1108.43 288.831Z" fill="#EAECF0"/>
<path d="M1083.09 319.296C1086.54 319.296 1089.35 316.495 1089.35 313.04C1089.35 309.584 1086.54 306.783 1083.09 306.783C1079.63 306.783 1076.83 309.584 1076.83 313.04C1076.83 316.495 1079.63 319.296 1083.09 319.296Z" fill="#EAECF0"/>
<path d="M889.211 240.504L896.481 252.773C898.919 254.782 901.627 256.438 904.524 257.694C908.811 259.54 913.431 260.488 918.098 260.48L889.211 240.504Z" fill="#091A3C"/>
<path d="M980.12 240.504C979.961 241.172 979.798 241.835 979.634 242.503C979.115 244.511 978.185 246.388 976.9 248.016C975.617 249.644 974.008 250.987 972.177 251.96L958.999 259.23C957.45 260.089 955.778 260.702 954.041 261.048C949.497 262.078 947.058 262.207 946.725 261.434C945.922 259.571 957.054 252.594 980.12 240.504Z" fill="#091A3C"/>
<path d="M900.703 251.533L908.75 244.062C907.914 242.244 907.096 240.24 906.333 238.086C905.063 234.501 904.071 230.823 903.365 227.085C902.711 225.408 902.07 223.622 901.461 221.727C900.753 219.528 900.162 217.415 899.667 215.416C899.413 214.614 899.46 213.747 899.801 212.978C900.141 212.209 900.752 211.591 901.516 211.24C901.972 211.055 902.463 210.976 902.954 211.006C903.444 211.037 903.922 211.178 904.351 211.418C904.78 211.657 905.15 211.99 905.433 212.392C905.716 212.794 905.906 213.254 905.987 213.739C906.846 216.088 907.446 218.078 907.841 219.523C908.687 222.6 909.182 225.172 909.695 227.876C909.973 229.325 910.186 230.529 910.323 231.347C910.751 231.406 911.187 231.386 911.609 231.288C912.058 231.209 912.516 231.184 912.972 231.216L913.631 226.053C913.631 225.931 913.676 225.749 913.713 225.531C913.945 223.906 914.569 222.362 915.53 221.032C916.139 220.246 916.886 219.578 917.734 219.06C918.875 218.073 920.295 217.464 921.797 217.32C923.646 217.188 925.109 217.951 927.958 219.492C929.483 220.317 930.954 221.238 932.362 222.25L937.778 225.635C938.528 227.608 938.374 228.816 938.078 229.539L938.051 229.607C937.852 230.049 937.556 230.439 937.184 230.749C936.812 231.058 936.374 231.279 935.904 231.394C935.434 231.509 934.943 231.515 934.471 231.411C933.998 231.308 933.555 231.098 933.175 230.798C931.147 229.228 928.856 228.031 926.409 227.262C925.005 226.835 923.746 227.062 922.883 227.776C922.678 227.939 921.81 228.684 921.674 231.029C921.447 234.728 923.323 237.846 924.5 239.5L932.075 246.166L934.234 247.188C935.427 247.735 936.385 248.691 936.934 249.883C937.483 251.075 937.588 252.425 937.229 253.686C937.011 254.397 936.649 255.055 936.164 255.619C935.68 256.182 935.084 256.639 934.414 256.96C933.744 257.282 933.014 257.461 932.272 257.487C931.529 257.512 930.789 257.384 930.099 257.108L925.446 255.245L919.084 252.709L918.711 253.078C916.03 255.729 913.341 258.338 910.645 260.907" fill="#FBF0C4"/>
<path d="M900.703 251.533L908.75 244.062C907.914 242.244 907.096 240.24 906.333 238.086C905.063 234.501 904.071 230.823 903.365 227.085C902.711 225.408 902.07 223.622 901.461 221.727C900.753 219.528 900.162 217.415 899.667 215.416C899.413 214.614 899.46 213.747 899.801 212.978C900.141 212.209 900.752 211.591 901.516 211.24C901.972 211.055 902.463 210.976 902.954 211.006C903.444 211.037 903.922 211.178 904.351 211.418C904.78 211.657 905.15 211.99 905.433 212.392C905.716 212.794 905.906 213.254 905.987 213.739C906.846 216.088 907.446 218.078 907.841 219.523C908.687 222.6 909.182 225.172 909.695 227.876C909.973 229.325 910.186 230.529 910.323 231.347C910.751 231.406 911.187 231.386 911.609 231.288C912.058 231.209 912.516 231.184 912.972 231.216L913.631 226.053C913.631 225.931 913.676 225.749 913.713 225.531C913.945 223.906 914.569 222.362 915.53 221.032C916.139 220.246 916.886 219.578 917.734 219.06C918.875 218.073 920.295 217.464 921.797 217.32C923.646 217.188 925.109 217.951 927.958 219.492C929.483 220.317 930.954 221.238 932.362 222.25L937.778 225.635C938.528 227.608 938.374 228.816 938.078 229.539L938.051 229.607C937.852 230.049 937.556 230.439 937.184 230.749C936.812 231.058 936.374 231.279 935.904 231.394C935.434 231.509 934.943 231.515 934.471 231.411C933.998 231.308 933.555 231.098 933.175 230.798C931.147 229.228 928.856 228.031 926.409 227.262C925.005 226.835 923.746 227.062 922.883 227.776C922.678 227.939 921.81 228.684 921.674 231.029C921.447 234.728 923.323 237.846 924.5 239.5L932.075 246.166L934.234 247.188C935.427 247.735 936.385 248.691 936.934 249.883C937.483 251.075 937.588 252.425 937.229 253.686C937.011 254.397 936.649 255.055 936.164 255.619C935.68 256.182 935.084 256.639 934.414 256.96C933.744 257.282 933.014 257.461 932.272 257.487C931.529 257.512 930.789 257.384 930.099 257.108L925.446 255.245L919.084 252.709L918.711 253.078C916.03 255.729 913.341 258.338 910.645 260.907" stroke="#091A3C" stroke-width="1.5" stroke-linecap="round" stroke-linejoin="round"/>
<path d="M916.021 370.467C911.477 383.668 906.66 398.109 901.971 411.959C900.312 416.853 898.672 421.675 897.063 426.342C896.154 431.086 895.336 435.194 894.527 439.338C893.814 443.001 893.096 446.695 892.255 450.885H879.459C879.632 446.404 881.622 441.919 881.795 437.434C881.812 436.995 881.74 436.557 881.583 436.146C881.426 435.736 881.186 435.362 880.88 435.046C880.573 434.732 880.206 434.482 879.8 434.313C879.394 434.145 878.958 434.061 878.518 434.066C878.079 434.071 877.645 434.166 877.243 434.344C876.841 434.522 876.48 434.78 876.181 435.103C875.883 435.425 875.652 435.805 875.505 436.219C875.357 436.633 875.296 437.073 875.324 437.511C875.605 441.969 874.065 446.427 874.347 450.885H824.684C824.92 449.121 827.115 434.585 840.588 426.801C843.351 425.206 850.649 420.807 859.555 422.684H859.664C862.125 423.234 864.698 422.94 866.971 421.85C869.244 420.759 871.083 418.935 872.193 416.672C878.121 404.457 884.011 392.059 889.86 379.478C892.566 373.661 895.233 367.862 897.863 362.078C903.156 366.289 909.384 369.166 916.021 370.467Z" fill="#86AAB4" stroke="#091A3C" stroke-width="1.5" stroke-linecap="round" stroke-linejoin="round"/>
<path d="M965.152 405.002C963.208 420.298 961.261 435.597 959.313 450.898H972.11L971.592 437.448C971.574 437.009 971.646 436.571 971.803 436.16C971.961 435.749 972.2 435.375 972.506 435.06C972.813 434.745 973.18 434.496 973.586 434.327C973.992 434.159 974.428 434.074 974.868 434.079C975.307 434.085 975.741 434.179 976.143 434.358C976.545 434.536 976.906 434.794 977.205 435.116C977.504 435.439 977.734 435.819 977.881 436.233C978.029 436.646 978.09 437.086 978.062 437.525C977.781 441.981 977.5 446.439 977.222 450.898H1026.9C1026.66 449.135 1024.47 434.598 1010.99 426.814C1003.53 422.645 994.74 421.507 986.455 423.633C987.183 420.456 987.911 417.275 988.641 414.091C989.634 408.679 989.352 403.11 987.82 397.826C986.287 392.541 983.546 387.686 979.812 383.645L959.645 361.833L935.561 370.467L965.152 405.002Z" fill="#86AAB4" stroke="#091A3C" stroke-width="1.5" stroke-linecap="round" stroke-linejoin="round"/>
<path d="M966.547 369.317L957.559 377.283L958.281 383.19L952.374 381.827L948.284 385.462L941.468 377.901L956.463 358.197L966.547 369.317Z" fill="#FBF0C4" stroke="#091A3C" stroke-width="1.5" stroke-linecap="round" stroke-linejoin="round"/>
<path d="M960.862 363.155C956.691 366.095 953.337 370.049 951.115 374.643C949.495 378.038 948.534 381.709 948.284 385.462L941.468 377.737L960.862 363.155Z" fill="#091A3C"/>
<path d="M992.027 422.697C990.146 422.846 988.282 423.159 986.456 423.633C987.183 420.455 987.912 417.275 988.642 414.09C989.894 407.298 989.131 400.288 986.447 393.923C988.019 400.599 987.12 405.198 985.993 408.165C984.366 412.482 981.748 414.763 980.994 419.98C980.635 422.56 980.789 425.185 981.449 427.705L992.027 422.697Z" fill="#091A3C"/>
<path d="M965.097 405.002L966.688 408.66C967.58 410.715 967.9 412.972 967.615 415.193C967.329 417.415 966.448 419.517 965.065 421.279L964.643 421.815L964.716 422.184C965.258 424.89 964.882 427.699 963.648 430.168L961.916 433.63C962.977 424.088 964.037 414.545 965.097 405.002Z" fill="#091A3C"/>
<path d="M971.914 450.898H959.19L960.049 445.995H971.537L971.914 450.898Z" fill="#091A3C"/>
<path d="M1027.35 450.898H977.367L978.226 445.995H1025.61L1027.35 450.898Z" fill="#091A3C"/>
<path d="M958.282 383.19L963.735 390.006" stroke="#091A3C" stroke-width="1.5" stroke-linecap="round" stroke-linejoin="round"/>
<path d="M876.941 330.478L872.919 310.338C868.561 305.5 865.858 299.397 865.205 292.918C864.551 286.439 865.98 279.92 869.284 274.308L889.21 240.504L895.404 249.978C896.767 252.082 898.721 252.882 899.493 253.432C906.069 258.076 914.112 259.589 918.093 260.13C916.155 264.331 913.945 268.4 911.476 272.313C906.517 280.168 900.56 287.348 893.754 293.67L908.568 309.121L876.941 330.478Z" fill="#F48757" stroke="#091A3C" stroke-width="1.5" stroke-linecap="round" stroke-linejoin="round"/>
<path d="M972.369 255.1L963.554 246.093C965.076 243.158 966.28 240.64 967.13 238.782C969.211 234.237 968.902 234.237 970.956 229.502C973.765 223.018 974.991 221.418 974.755 218.142C974.669 216.97 974.469 214.393 972.888 213.748C972.442 213.574 971.964 213.495 971.486 213.516C971.007 213.538 970.539 213.66 970.111 213.874C969.682 214.088 969.304 214.39 968.999 214.76C968.695 215.129 968.472 215.559 968.343 216.02C967.548 217.614 966.835 219.247 966.208 220.914C965.594 222.532 965.108 224.068 964.717 225.495C964.685 225.585 963.527 228.598 963.495 228.675L962.422 231.47L959.014 232.065C958.978 230.505 958.862 228.947 958.664 227.399C958.155 223.413 957.478 222.4 957.187 221.982C956.824 221.482 955.824 220.082 954.138 219.742C953.543 219.623 953.402 219.742 950.535 220.314C948.104 220.8 947.808 220.791 947.063 221.132C945.959 221.646 945.654 222.105 944.664 222.804C943.325 223.73 941.813 224.377 940.22 224.708C939.492 224.9 938.866 225.365 938.475 226.008C938.17 226.732 937.975 227.499 937.898 228.28C937.894 228.303 937.894 228.326 937.898 228.348C937.788 229.257 938.643 230.166 939.297 230.525C940.347 231.061 941.469 230.357 944.055 229.362C947.372 228.085 949.262 227.358 950.417 228.085C950.921 228.398 951.803 229.298 951.612 232.452C951.612 232.452 951.612 232.479 951.612 232.502C951.131 235.56 949.88 238.445 947.976 240.886C946.038 243.305 943.493 245.168 940.601 246.284L939.238 246.802C936.634 247.806 934.503 250.892 934.503 253.705C934.503 254.39 934.663 255.066 934.973 255.678C935.283 256.289 935.733 256.819 936.286 257.225C936.838 257.629 937.479 257.898 938.156 258.009C938.832 258.12 939.525 258.07 940.179 257.863C941.657 257.72 943.11 257.382 944.5 256.858C945.321 256.551 946.116 256.179 946.877 255.745L952.63 253.927C955.538 256.867 958.383 259.953 961.264 263.097L961.786 263.684" fill="#FBF0C4"/>
<path d="M972.369 255.1L963.554 246.093C965.076 243.158 966.28 240.64 967.13 238.782C969.211 234.237 968.902 234.237 970.956 229.502C973.765 223.018 974.991 221.418 974.755 218.142C974.669 216.97 974.469 214.393 972.888 213.748C972.442 213.574 971.964 213.495 971.486 213.516C971.007 213.538 970.539 213.66 970.111 213.874C969.682 214.088 969.304 214.39 968.999 214.76C968.695 215.129 968.472 215.559 968.343 216.02C967.548 217.614 966.835 219.247 966.208 220.914C965.594 222.532 965.108 224.068 964.717 225.495C964.685 225.585 963.527 228.598 963.495 228.675L962.422 231.47L959.014 232.065C958.978 230.505 958.862 228.947 958.664 227.399C958.155 223.413 957.478 222.4 957.187 221.982C956.824 221.482 955.824 220.082 954.138 219.742C953.543 219.623 953.402 219.742 950.535 220.314C948.104 220.8 947.808 220.791 947.063 221.132C945.959 221.646 945.654 222.105 944.664 222.804C943.325 223.73 941.813 224.377 940.22 224.708C939.492 224.9 938.866 225.365 938.475 226.008C938.17 226.732 937.975 227.499 937.898 228.28C937.894 228.303 937.894 228.326 937.898 228.348C937.788 229.257 938.643 230.166 939.297 230.525C940.347 231.061 941.469 230.357 944.055 229.362C947.372 228.085 949.262 227.358 950.417 228.085C950.921 228.398 951.803 229.298 951.612 232.452C951.612 232.452 951.612 232.479 951.612 232.502C951.131 235.56 949.88 238.445 947.976 240.886C946.038 243.305 943.493 245.168 940.601 246.284L939.238 246.802C936.634 247.806 934.503 250.892 934.503 253.705C934.503 254.39 934.663 255.066 934.973 255.678C935.283 256.289 935.733 256.819 936.286 257.225C936.838 257.629 937.479 257.898 938.156 258.009C938.832 258.12 939.525 258.07 940.179 257.863C941.657 257.72 943.11 257.382 944.5 256.858C945.321 256.551 946.116 256.179 946.877 255.745L952.63 253.927C955.538 256.867 958.383 259.953 961.264 263.097L961.786 263.684" stroke="#091A3C" stroke-width="1.5" stroke-linecap="round" stroke-linejoin="round"/>
<path d="M899.584 299.809L899.13 305.153C899.018 306.503 898.555 307.8 897.788 308.916C897.02 310.032 895.974 310.928 894.754 311.515L889.905 313.851C887.645 314.942 885.612 316.45 883.911 318.295L875.914 326.979L880.121 332.75L908.568 309.12L899.584 299.809Z" fill="#091A3C"/>
<path d="M986.525 331.5L991.682 311.62C993.909 303.036 993.872 300.259 993.954 298.065C994.076 292.624 993.448 287.193 992.087 281.924C991.193 278.387 989.988 274.934 988.488 271.608C985.458 261.4 982.429 251.187 979.399 240.972C978.618 242.847 977.837 244.725 977.059 246.607C976.302 248.433 974.96 249.955 973.242 250.933L959.864 258.571C958.952 259.088 957.957 259.443 956.924 259.621L946.363 261.407L965.449 290.526L956.165 308.402C958.633 313.018 961.87 317.179 965.74 320.704C971.637 326.012 978.791 329.728 986.525 331.5Z" fill="#F48757" stroke="#091A3C" stroke-width="1.5" stroke-linecap="round" stroke-linejoin="round"/>
<path d="M964.747 290.49C966.121 301.409 969.091 312.067 973.563 322.121C966.669 319.799 960.58 315.561 956.009 309.902C958.914 303.429 961.827 296.958 964.747 290.49Z" fill="#091A3C"/>
<path d="M891.601 376.733L899.463 381.277L899.722 387.244L905.311 384.94L909.955 387.843C911.496 384.022 911.291 384.031 912.832 380.209C907.111 375.511 902.889 366.454 897.168 361.76C895.228 366.577 893.537 371.921 891.601 376.733Z" fill="#FBF0C4" stroke="#091A3C" stroke-width="1.5" stroke-linecap="round" stroke-linejoin="round"/>
<path d="M896.481 363.855C900.435 369.745 903.582 376.138 905.838 382.863C906.804 385.753 907.601 388.696 908.223 391.679C910.041 388.765 911.859 385.852 913.676 382.94C911.313 380.135 908.854 377.303 906.297 374.443C902.992 370.75 899.72 367.221 896.481 363.855Z" fill="#091A3C"/>
<path d="M937.602 259.817C937.606 259.475 937.482 259.145 937.254 258.89C937.026 258.636 936.711 258.477 936.371 258.444C936.031 258.411 935.691 258.506 935.418 258.711C935.146 258.917 934.96 259.217 934.898 259.553C931.081 273.503 922.211 296.874 902.839 310.529C881.404 325.648 859.142 325.857 850.813 325.434C850.724 325.438 850.638 325.468 850.566 325.52C850.494 325.572 850.439 325.644 850.408 325.728C850.376 325.811 850.369 325.901 850.389 325.988C850.409 326.075 850.453 326.154 850.518 326.216L858.274 332.487L839.303 333.704C839.207 333.721 839.119 333.769 839.051 333.839C838.984 333.91 838.942 334.001 838.93 334.098C838.918 334.194 838.938 334.292 838.986 334.377C839.034 334.461 839.109 334.529 839.198 334.568L858.683 340.861L844.265 345.097C844.176 345.136 844.101 345.203 844.053 345.288C844.005 345.372 843.985 345.471 843.997 345.567C844.008 345.664 844.051 345.755 844.118 345.825C844.185 345.896 844.273 345.943 844.369 345.96C861.537 346.869 884.73 351.086 899.903 368.031C926.432 397.645 914.358 450.344 919.898 450.93C925.873 451.557 925.001 388.825 961.99 362.846C979.135 350.804 999.443 350.15 1012.95 351.195C1013.04 351.201 1013.13 351.179 1013.2 351.131C1013.28 351.083 1013.33 351.012 1013.37 350.929C1013.4 350.846 1013.4 350.755 1013.37 350.671C1013.35 350.586 1013.3 350.511 1013.23 350.459L1004.72 344.138L1024.47 340.675C1024.57 340.662 1024.65 340.615 1024.72 340.543C1024.78 340.472 1024.82 340.38 1024.82 340.284C1024.82 340.189 1024.79 340.095 1024.74 340.019C1024.68 339.944 1024.59 339.891 1024.5 339.871L1004.36 334.931L1016.13 331.66C1016.24 331.637 1016.33 331.575 1016.39 331.487C1016.44 331.399 1016.47 331.291 1016.45 331.187C1016.43 331.083 1016.37 330.991 1016.29 330.929C1016.2 330.867 1016.09 330.841 1015.99 330.855C1004.69 331.905 980.658 331.519 960.341 313.465C943.005 298.065 938.642 273.922 937.602 259.817Z" fill="#80AD79" stroke="#091A3C" stroke-width="1.5" stroke-linecap="round" stroke-linejoin="round"/>
<path d="M959.781 341.902C959.715 343.41 959.518 344.909 959.19 346.383C958.859 347.853 958.402 349.293 957.827 350.686C957.315 352.111 956.695 353.495 955.973 354.826C955.225 356.152 954.388 357.428 953.469 358.643C952.183 360.21 950.657 360.96 949.984 361.601C948.902 362.623 948.166 363.955 947.048 364.755C945.843 365.531 944.584 366.222 943.281 366.822C941.959 367.522 940.782 368.463 939.51 368.931C938.078 369.462 936.601 369.64 935.306 369.939C933.917 370.303 932.507 370.587 931.085 370.789C929.653 370.933 928.212 370.955 926.777 370.853C925.315 370.792 923.859 370.629 922.419 370.367C920.982 370.097 919.563 369.737 918.17 369.29C916.803 368.781 915.471 368.184 914.181 367.504C912.883 366.858 911.631 366.121 910.436 365.3C909.264 364.536 907.846 363.991 906.71 362.987C905.66 362.078 904.933 360.715 903.956 359.57C902.849 358.444 901.855 357.213 900.989 355.893C900.262 354.703 899.93 353.108 899.244 351.499C898.574 350.087 898.02 348.622 897.59 347.119C897.226 345.66 896.681 344.16 896.554 342.506C896.427 339.313 896.694 336.115 897.349 332.986C897.707 331.397 898.198 329.84 898.817 328.333C899.539 326.784 900.866 325.666 901.721 324.412C902.628 323.09 903.627 321.835 904.711 320.654C905.805 319.483 906.964 318.374 908.182 317.332C909.032 316.568 910 314.996 911.686 313.76C913.005 312.727 914.4 311.793 915.857 310.965C917.375 310.249 918.948 309.656 920.561 309.193C922.069 308.702 923.782 308.761 925.5 308.539C927.072 308.339 928.681 307.889 930.444 308.003C932.071 308.07 933.688 308.287 935.275 308.652C936.866 309.033 938.421 309.556 939.919 310.216C941.459 310.938 942.745 312.033 944.008 312.901C945.458 313.901 946.499 315.196 947.571 316.187C949.052 317.55 950.384 318.6 951.143 319.449C952.261 320.677 953.312 321.963 954.292 323.303C955.304 324.625 956.215 326.021 957.018 327.479C957.84 328.933 958.54 330.453 959.109 332.023C959.599 333.532 959.327 335.29 959.563 337.022C959.793 338.638 959.866 340.272 959.781 341.902Z" fill="#FBF0C4"/>
<path d="M959.781 341.902C959.715 343.41 959.518 344.909 959.19 346.383C958.859 347.853 958.402 349.293 957.827 350.686C957.315 352.111 956.695 353.495 955.973 354.826C955.225 356.152 954.388 357.428 953.469 358.643C952.183 360.21 950.657 360.96 949.984 361.601C948.902 362.623 948.166 363.955 947.048 364.755C945.843 365.531 944.584 366.222 943.281 366.822C941.959 367.522 940.782 368.463 939.51 368.931C938.078 369.462 936.601 369.64 935.306 369.939C933.917 370.303 932.507 370.587 931.085 370.789C929.653 370.933 928.212 370.955 926.777 370.853C925.315 370.792 923.859 370.629 922.419 370.367C920.982 370.097 919.563 369.737 918.17 369.29C916.803 368.781 915.471 368.184 914.181 367.504C912.883 366.858 911.631 366.121 910.436 365.3C909.264 364.536 907.846 363.991 906.71 362.987C905.66 362.078 904.933 360.715 903.956 359.57C902.849 358.444 901.855 357.213 900.989 355.893C900.262 354.703 899.93 353.108 899.244 351.499C898.574 350.087 898.02 348.622 897.59 347.119C897.226 345.66 896.681 344.16 896.554 342.506C896.427 339.313 896.694 336.115 897.349 332.986C897.707 331.397 898.198 329.84 898.817 328.333C899.539 326.784 900.866 325.666 901.721 324.412C902.628 323.09 903.627 321.835 904.711 320.654C905.805 319.483 906.964 318.374 908.182 317.332C909.032 316.568 910 314.996 911.686 313.76C913.005 312.727 914.4 311.793 915.857 310.965C917.375 310.249 918.948 309.656 920.561 309.193C922.069 308.702 923.782 308.761 925.5 308.539C927.072 308.339 928.681 307.889 930.444 308.003C932.071 308.07 933.688 308.287 935.275 308.652C936.866 309.033 938.421 309.556 939.919 310.216C941.459 310.938 942.745 312.033 944.008 312.901C945.458 313.901 946.499 315.196 947.571 316.187C949.052 317.55 950.384 318.6 951.143 319.449C952.261 320.677 953.312 321.963 954.292 323.303C955.304 324.625 956.215 326.021 957.018 327.479C957.84 328.933 958.54 330.453 959.109 332.023C959.599 333.532 959.327 335.29 959.563 337.022C959.793 338.638 959.866 340.272 959.781 341.902Z" stroke="#091A3C" stroke-width="1.5" stroke-linecap="round" stroke-linejoin="round"/>
<path d="M914.226 337.122C915.358 337.122 916.276 336.204 916.276 335.072C916.276 333.941 915.358 333.023 914.226 333.023C913.094 333.023 912.177 333.941 912.177 335.072C912.177 336.204 913.094 337.122 914.226 337.122Z" fill="white" stroke="#091A3C" stroke-width="1.5" stroke-linecap="round" stroke-linejoin="round"/>
<path d="M929.558 326.27C928.231 330.781 926.901 335.29 925.568 339.798C925.41 340.336 925.402 340.906 925.546 341.447C925.69 341.989 925.98 342.48 926.384 342.867C926.789 343.255 927.292 343.524 927.839 343.644C928.386 343.765 928.955 343.733 929.485 343.552" stroke="#091A3C" stroke-width="1.5" stroke-linecap="round" stroke-linejoin="round"/>
<path d="M908.591 334.704C908.689 333.209 909.377 331.814 910.504 330.827C911.63 329.839 913.103 329.339 914.598 329.437C916.093 329.536 917.488 330.224 918.476 331.351C919.463 332.477 919.963 333.95 919.865 335.445" stroke="#091A3C" stroke-width="1.5" stroke-linecap="round" stroke-linejoin="round"/>
<path d="M913.586 342.643L913.94 337.272L910.005 340.334" stroke="#091A3C" stroke-width="1.5" stroke-linecap="round" stroke-linejoin="round"/>
<path d="M913.94 337.272L917.053 340.38" stroke="#091A3C" stroke-width="1.5" stroke-linecap="round" stroke-linejoin="round"/>
<path d="M942.726 338.58C943.858 338.58 944.775 337.663 944.775 336.531C944.775 335.399 943.858 334.482 942.726 334.482C941.594 334.482 940.677 335.399 940.677 336.531C940.677 337.663 941.594 338.58 942.726 338.58Z" fill="white" stroke="#091A3C" stroke-width="1.5" stroke-linecap="round" stroke-linejoin="round"/>
<path d="M937.092 336.158C937.141 335.418 937.335 334.695 937.663 334.029C937.992 333.364 938.447 332.77 939.005 332.281C939.563 331.792 940.212 331.417 940.914 331.179C941.617 330.941 942.359 330.843 943.1 330.892C943.84 330.94 944.563 331.134 945.229 331.463C945.894 331.791 946.488 332.247 946.977 332.805C947.466 333.363 947.841 334.011 948.079 334.714C948.317 335.416 948.415 336.159 948.366 336.899" stroke="#091A3C" stroke-width="1.5" stroke-linecap="round" stroke-linejoin="round"/>
<path d="M942.087 344.11L942.441 338.739L938.506 341.802" stroke="#091A3C" stroke-width="1.5" stroke-linecap="round" stroke-linejoin="round"/>
<path d="M942.441 338.726L945.553 341.834" stroke="#091A3C" stroke-width="1.5" stroke-linecap="round" stroke-linejoin="round"/>
<path d="M917.634 343.688L923.219 345.796C926.24 346.934 929.535 347.126 932.666 346.346L939.433 344.66L932.589 353.835C932.029 354.586 931.291 355.186 930.442 355.58C929.593 355.975 928.659 356.153 927.724 356.098C926.789 356.042 925.882 355.755 925.086 355.263C924.289 354.771 923.628 354.088 923.16 353.276L917.634 343.688Z" fill="#091A3C"/>
<path d="M879.668 450.898H892.392L893.805 445.995H880.045L879.668 450.898Z" fill="#091A3C"/>
<path d="M824.229 450.898H874.215L875.174 445.995H825.969L824.229 450.898Z" fill="#091A3C"/>
<path d="M899.798 386.989L895.54 394.605" stroke="#091A3C" stroke-width="1.5" stroke-linecap="round" stroke-linejoin="round"/>
<path d="M893.755 293.67L883.304 286.4H890.365C891.676 286.401 892.947 285.95 893.964 285.123L898.963 281.065C899.43 280.686 899.945 280.369 900.494 280.124L908.637 276.489L893.755 293.67Z" fill="#091A3C"/>
<path d="M930.443 308.094C930.443 308.094 918.042 330.505 895.79 322.671" stroke="#091A3C" stroke-width="1.5" stroke-linecap="round" stroke-linejoin="round"/>
<path d="M905.856 319.572C909.435 319.142 912.877 317.933 915.939 316.03C919.001 314.127 921.608 311.576 923.579 308.557" stroke="#091A3C" stroke-width="1.5" stroke-linecap="round" stroke-linejoin="round"/>
<path d="M929.99 308.066C929.99 308.066 939.356 331.905 962.445 327.043" stroke="#091A3C" stroke-width="1.5" stroke-linecap="round" stroke-linejoin="round"/>
<path d="M952.87 322.658C949.377 321.762 946.123 320.113 943.335 317.826C940.548 315.54 938.295 312.67 936.733 309.42" stroke="#091A3C" stroke-width="1.5" stroke-linecap="round" stroke-linejoin="round"/>
<path d="M966.257 290.344L972.01 285.209" stroke="#091A3C" stroke-width="1.5" stroke-linecap="round" stroke-linejoin="round"/>
<path d="M992.145 310.361L987.778 315.119" stroke="#091A3C" stroke-width="1.5" stroke-linecap="round" stroke-linejoin="round"/>
<path d="M872.852 310.484L876.942 315.482" stroke="#091A3C" stroke-width="1.5" stroke-linecap="round" stroke-linejoin="round"/>
<path d="M901.97 411.959C900.311 416.853 898.671 421.675 897.062 426.342C896.153 431.086 895.335 435.194 894.527 439.338L894.04 441.11L892.677 431.167C892.442 429.46 892.572 427.723 893.059 426.069L894.272 421.979C894.817 420.14 895.79 418.457 897.112 417.067L901.97 411.959Z" fill="#091A3C"/>
<path d="M862.246 423.374C862.246 423.374 868.28 427.55 871.993 418.962L875.706 410.378L868.512 421.052L862.246 423.374Z" fill="#091A3C"/>
<path d="M912.954 231.216C912.954 231.216 912.831 236.464 913.863 238.55L912.954 231.216Z" fill="#FF5E56"/>
<path d="M912.954 231.216C912.954 231.216 912.831 236.464 913.863 238.55" stroke="#091A3C" stroke-width="1.5" stroke-linecap="round" stroke-linejoin="round"/>
<path d="M959.009 232.079C959.009 232.079 959.817 235.069 956.337 239.595L959.009 232.079Z" fill="#FF5E56"/>
<path d="M959.009 232.079C959.009 232.079 959.817 235.069 956.337 239.595" stroke="#091A3C" stroke-width="1.5" stroke-linecap="round" stroke-linejoin="round"/>
<path d="M288.527 198.01L260.717 190.116L254.628 187.03C249.747 187.876 236.302 190.892 225.222 202.662C209.136 219.745 210.999 241.487 211.348 244.923L211.741 245.036L211.921 245.084C213.102 245.392 214.35 245.332 215.495 244.911C216.641 244.491 217.632 243.73 218.332 242.73L230.887 224.906L277.407 237.157C279.995 237.839 282.692 238.004 285.343 237.644C287.995 237.284 290.55 236.404 292.861 235.057C295.173 233.71 297.197 231.92 298.816 229.791C300.436 227.661 301.62 225.234 302.302 222.647L302.4 222.279C303.715 217.224 303 211.855 300.408 207.32C297.815 202.785 293.551 199.444 288.527 198.01Z" fill="#F0B7C6" stroke="#091A3C" stroke-width="1.5" stroke-linecap="round" stroke-linejoin="round"/>
<path d="M230.882 224.93L229.881 235.569C229.758 236.881 229.332 238.147 228.638 239.268C227.944 240.388 227 241.333 225.88 242.029C224.761 242.724 223.495 243.152 222.183 243.277C220.87 243.403 219.547 243.224 218.315 242.754L224.985 226.632" fill="#F0B7C6"/>
<path d="M230.882 224.93L229.881 235.569C229.758 236.881 229.332 238.147 228.638 239.268C227.944 240.388 227 241.333 225.88 242.029C224.761 242.724 223.495 243.152 222.183 243.277C220.87 243.403 219.547 243.224 218.315 242.754L224.985 226.632" stroke="#091A3C" stroke-width="1.5" stroke-linecap="round" stroke-linejoin="round"/>
<path d="M232.099 204.834C248.037 205.476 263.642 209.586 277.827 216.878L232.099 204.834Z" fill="#F0B7C6"/>
<path d="M232.099 204.834C248.037 205.476 263.642 209.586 277.827 216.878" stroke="#091A3C" stroke-width="1.5" stroke-linecap="round" stroke-linejoin="round"/>
<path d="M221.356 208.992C221.16 207.604 221.201 206.193 221.478 204.819C224.377 190.736 252.194 186.861 253.76 186.661V187.508C255.591 177.479 257.429 167.451 259.276 157.424L221.866 154.389H221.682L186.74 155.565L189.788 187.488C187.222 187.951 184.484 188.34 181.584 188.606C175.064 189.2 168.499 189.121 161.994 188.371C159.024 188.001 156.009 188.325 153.185 189.317C150.361 190.309 147.806 191.943 145.72 194.089C142.049 197.823 139.994 202.85 140 208.086C140.016 213.584 142.209 218.852 146.098 222.74C149.988 226.627 155.258 228.819 160.759 228.836H208.483L216.091 249.272C216.501 250.373 217.227 251.328 218.178 252.017C218.477 252.229 218.827 252.354 219.192 252.378C219.557 252.403 219.921 252.328 220.245 252.159C220.57 251.99 220.841 251.735 221.03 251.423C221.219 251.11 221.319 250.751 221.317 250.386L221.356 208.992Z" fill="#F0B7C6" stroke="#091A3C" stroke-width="1.5" stroke-linecap="round" stroke-linejoin="round"/>
<path d="M162.838 208.638C178.712 204.533 195.371 204.533 211.245 208.638H162.838Z" fill="#F0B7C6"/>
<path d="M162.838 208.638C178.712 204.533 195.371 204.533 211.245 208.638" stroke="#091A3C" stroke-width="1.5" stroke-linecap="round" stroke-linejoin="round"/>
<path d="M217.131 236.103L216.578 250.456C215.628 250.562 214.667 250.47 213.756 250.185C212.843 249.901 212.001 249.43 211.28 248.804C210.559 248.178 209.976 247.409 209.568 246.545C209.159 245.682 208.935 244.744 208.907 243.789L208.483 228.82" fill="#F0B7C6"/>
<path d="M217.131 236.103L216.578 250.456C215.628 250.562 214.667 250.47 213.756 250.185C212.843 249.901 212.001 249.43 211.28 248.804C210.559 248.178 209.976 247.409 209.568 246.545C209.159 245.682 208.935 244.744 208.907 243.789L208.483 228.82" stroke="#091A3C" stroke-width="1.5" stroke-linecap="round" stroke-linejoin="round"/>
<path d="M231.796 204.705C238.144 197.827 245.564 192.023 253.768 187.516C255.274 185.96 256.45 184.116 257.224 182.094C257.998 180.072 258.354 177.914 258.272 175.75C235.908 175.668 207.192 174.727 184.813 174.645C184.49 177.036 184.777 179.471 185.648 181.721C186.519 183.972 187.946 185.965 189.796 187.516L200.205 196.144C202.943 198.415 205.418 200.985 207.585 203.807C208.864 205.47 210.142 207.131 211.418 208.791C212.894 207.778 214.64 207.233 216.43 207.226C218.22 207.219 219.971 207.751 221.455 208.752C221.891 207.339 222.759 206.098 223.938 205.203C226.096 203.607 229.113 203.45 231.796 204.705Z" fill="#80AD79" stroke="#091A3C" stroke-width="1.5" stroke-linecap="round" stroke-linejoin="round"/>
<path d="M299.432 158.354L280.05 138.399C271.921 130.019 265.836 119.794 262.83 108.516C261.905 104.97 260.161 101.691 257.74 98.9409C255.319 96.1905 252.287 94.0446 248.887 92.6758C238.623 88.6286 226.586 92.5109 220.442 102.065C214.211 90.5188 199.801 86.648 189.513 92.6758C184.052 95.8757 180.395 101.492 179.312 107.766C177.245 119.532 171.403 130.293 163.089 138.863L144.142 158.354C141.876 160.696 140.609 163.828 140.612 167.087C140.612 169.905 141.731 172.607 143.724 174.6C145.718 176.592 148.421 177.711 151.24 177.711H210.5L222.101 161.119C224.769 166.549 227.439 171.978 230.109 177.406L253.771 177.711H292.339C295.157 177.711 297.859 176.591 299.852 174.599C301.844 172.606 302.963 169.905 302.963 167.087C302.965 163.828 301.699 160.696 299.432 158.354ZM170.936 159.605L183.201 152.287C183.526 154.342 183.852 157.479 184.177 159.534C179.768 159.918 175.346 159.22 170.932 159.605H170.936ZM260.029 159.922C260.147 157.376 260.263 154.83 260.378 152.287L272.643 159.605L260.029 159.922Z" fill="#F0B7C6" stroke="#091A3C" stroke-width="1.5" stroke-linecap="round" stroke-linejoin="round"/>
<path d="M189.697 187.422C193.847 184.812 198.503 183.113 203.359 182.437C204.099 182.34 204.824 182.269 205.536 182.221L217.275 183.375C218.095 183.454 218.922 183.44 219.739 183.331L255.516 178.527L219.339 171.342L188.685 174.653C188.293 174.805 185.307 175.974 184.789 178.574C184.514 179.947 185.048 181.088 185.648 182.378C186.58 184.355 187.968 186.084 189.697 187.422Z" fill="#091A3C"/>
<path d="M226.334 152.929C226.334 152.726 227.052 146.117 227.417 142.776C227.443 142.537 227.519 142.307 227.64 142.1C227.762 141.893 227.926 141.714 228.121 141.575C228.317 141.435 228.54 141.339 228.776 141.292C229.011 141.245 229.254 141.248 229.488 141.302C229.665 141.322 229.837 141.38 229.99 141.471C230.145 141.561 230.278 141.682 230.383 141.827C230.65 142.162 230.8 142.575 230.81 143.003C231.233 146.326 232.016 149.592 233.145 152.745C233.73 154.376 234.407 155.973 235.169 157.53" fill="#80AD79"/>
<path d="M226.334 152.929C226.334 152.726 227.052 146.117 227.417 142.776C227.443 142.537 227.519 142.307 227.64 142.1C227.762 141.893 227.926 141.714 228.121 141.575C228.317 141.435 228.54 141.339 228.776 141.292C229.011 141.245 229.254 141.248 229.488 141.302C229.665 141.322 229.837 141.38 229.99 141.471C230.145 141.561 230.278 141.682 230.383 141.827C230.65 142.162 230.8 142.575 230.81 143.003C231.233 146.326 232.016 149.592 233.145 152.745C233.73 154.376 234.407 155.973 235.169 157.53" stroke="#091A3C" stroke-width="1.5" stroke-linecap="round" stroke-linejoin="round"/>
<path d="M210.499 158.82C210.028 158.554 210.577 157.295 211.605 152.012C212.151 149.204 212.527 146.816 212.782 145.059C212.845 144.627 212.868 144.196 212.892 143.764C212.912 143.411 213.002 143.064 213.155 142.745C213.339 142.337 213.654 142.002 214.049 141.792C215.109 141.266 216.29 142.051 216.529 143.435C217.196 145.048 217.494 146.79 217.404 148.533C217.039 154.675 211.547 159.412 210.499 158.82Z" fill="#80AD79" stroke="#091A3C" stroke-width="1.5" stroke-linecap="round" stroke-linejoin="round"/>
<path d="M158.581 159.738C163.232 157.788 168.28 156.968 173.309 157.346C176.535 157.603 179.702 158.356 182.698 159.577C187.261 157.495 190.69 157.491 193.013 157.899C195.818 158.393 196.501 159.397 200.193 159.922C202.363 160.232 205.25 160.644 208.463 159.405L208.93 159.213C210.423 158.545 211.748 157.556 212.811 156.315C213.874 155.074 214.649 153.612 215.078 152.036L217.95 141.89C218.492 140.184 221.646 140.486 221.638 142.282C221.832 147.051 221.922 152.019 221.909 157.185C221.896 162.351 221.765 167.302 221.517 172.037C221.516 172.611 221.427 173.183 221.254 173.731C220.976 174.618 220.488 175.426 219.83 176.084C218.547 177.358 216.911 177.613 215.792 177.751C210.001 178.464 201.829 178.143 200.001 178.064C194.407 179.78 188.414 179.684 182.879 177.79C176.361 180.287 169.15 180.295 162.626 177.813C162.513 171.588 161.136 165.45 158.577 159.773L158.581 159.738Z" fill="#80AD79" stroke="#091A3C" stroke-width="1.5" stroke-linecap="round" stroke-linejoin="round"/>
<path d="M283.958 159.738C280.469 158.323 276.73 157.626 272.966 157.69C269.202 157.753 265.488 158.575 262.049 160.106C255.536 157.497 248.384 156.922 241.538 158.459C240.384 158.717 239.189 158.725 238.032 158.482C236.876 158.239 235.785 157.751 234.832 157.051L231.976 154.949C229.596 153.197 227.918 150.656 227.241 147.781C226.754 145.71 226.266 143.639 225.777 141.568C225.726 141.285 225.612 141.018 225.443 140.784C225.275 140.551 225.057 140.359 224.805 140.22C224.552 140.082 224.273 140.002 223.985 139.986C223.698 139.969 223.411 140.017 223.144 140.125C222.847 140.26 222.582 140.459 222.37 140.708C222.158 140.956 222.003 141.249 221.917 141.564C221.885 147.267 221.885 153.019 221.917 158.82C221.94 163.552 221.984 168.251 222.05 172.915C222.054 173.399 222.129 173.88 222.274 174.342C222.507 175.084 222.918 175.757 223.47 176.303C224.561 177.39 225.966 177.601 226.868 177.708C231.968 178.3 240.831 177.794 241.985 177.708C248.323 179.347 254.974 179.355 261.315 177.731C267.289 179.723 273.746 179.731 279.725 177.754C279.223 171.447 280.703 165.141 283.958 159.714V159.738Z" fill="#80AD79" stroke="#091A3C" stroke-width="1.5" stroke-linecap="round" stroke-linejoin="round"/>
<path d="M208.527 105.732L194.757 105.571C193.426 105.555 192.335 106.621 192.32 107.951L192.311 108.707C192.296 110.037 193.361 111.128 194.692 111.143L208.462 111.304C209.793 111.32 210.884 110.254 210.899 108.925L210.908 108.168C210.923 106.838 209.858 105.747 208.527 105.732Z" fill="white" stroke="#091A3C" stroke-width="1.5" stroke-linecap="round" stroke-linejoin="round"/>
<path d="M202.68 108.429C202.619 108.737 202.447 109.012 202.196 109.2C201.946 109.388 201.634 109.477 201.321 109.448C201.009 109.42 200.718 109.277 200.505 109.047C200.292 108.816 200.172 108.515 200.169 108.202" stroke="#091A3C" stroke-width="1.5" stroke-linecap="round" stroke-linejoin="round"/>
<path d="M192.323 108.139L210.912 108.355" stroke="#091A3C" stroke-width="1.5" stroke-linecap="round" stroke-linejoin="round"/>
<path d="M201.119 114.187L201.154 111.28" stroke="#091A3C" stroke-width="1.5" stroke-linecap="round" stroke-linejoin="round"/>
<path d="M198.236 111.182L195.976 113.755L198.236 111.182Z" fill="white"/>
<path d="M198.236 111.182L195.976 113.755" stroke="#091A3C" stroke-width="1.5" stroke-linecap="round" stroke-linejoin="round"/>
<path d="M204.183 111.249L206.384 113.877L204.183 111.249Z" fill="white"/>
<path d="M204.183 111.249L206.384 113.877" stroke="#091A3C" stroke-width="1.5" stroke-linecap="round" stroke-linejoin="round"/>
<path d="M249.857 105.732L236.087 105.572C234.757 105.556 233.666 106.621 233.65 107.951L233.641 108.708C233.626 110.038 234.692 111.128 236.022 111.144L249.792 111.305C251.123 111.321 252.214 110.255 252.229 108.925L252.238 108.168C252.254 106.839 251.188 105.748 249.857 105.732Z" fill="white" stroke="#091A3C" stroke-width="1.5" stroke-linecap="round" stroke-linejoin="round"/>
<path d="M244.01 108.429C243.959 108.747 243.791 109.033 243.538 109.231C243.285 109.429 242.966 109.524 242.646 109.497C242.326 109.47 242.028 109.322 241.812 109.084C241.596 108.846 241.479 108.535 241.483 108.214" stroke="#091A3C" stroke-width="1.5" stroke-linecap="round" stroke-linejoin="round"/>
<path d="M233.648 108.139L252.237 108.355" stroke="#091A3C" stroke-width="1.5" stroke-linecap="round" stroke-linejoin="round"/>
<path d="M186.384 116.492C187.525 117.171 194.835 122.148 196.977 123.026C202.89 125.462 209.559 125.419 222.656 125.234C234.352 125.07 240.311 124.956 246.129 123.301C248.813 122.54 255.224 117.661 256.723 117.045" fill="#F0B7C6"/>
<path d="M186.384 116.492C187.525 117.171 194.835 122.148 196.977 123.026C202.89 125.462 209.559 125.419 222.656 125.234C234.352 125.07 240.311 124.956 246.129 123.301C248.813 122.54 255.224 117.661 256.723 117.045" stroke="#091A3C" stroke-width="1.5" stroke-linecap="round" stroke-linejoin="round"/>
<path d="M246.772 123.497C243.747 125.469 240.372 126.844 236.83 127.548C235.48 127.807 234.57 127.877 231.094 128.061C222.78 128.505 218.626 128.571 216.393 128.65C205.698 129.019 201.092 125.352 197.792 123.497C200.467 124.125 203.173 124.617 205.898 124.971C210.979 125.626 214.757 125.603 222.102 125.52C227.728 125.461 231.969 125.403 237.748 124.787C241.452 124.379 244.544 123.889 246.772 123.497Z" fill="#091A3C"/>
<path d="M182.697 159.577C182.697 159.577 180.492 160.844 175.706 159.738L182.697 159.577Z" fill="#80AD79"/>
<path d="M182.697 159.577C182.697 159.577 180.492 160.844 175.706 159.738" stroke="#091A3C" stroke-width="1.5" stroke-linecap="round" stroke-linejoin="round"/>
<path d="M182.906 177.751C182.906 177.751 184.377 176.182 188.611 177.429L182.906 177.751Z" fill="#80AD79"/>
<path d="M182.906 177.751C182.906 177.751 184.377 176.182 188.611 177.429" stroke="#091A3C" stroke-width="1.5" stroke-linecap="round" stroke-linejoin="round"/>
<path d="M200.008 178.009C201.508 176.765 203.399 176.09 205.348 176.103L200.008 178.009Z" fill="#80AD79"/>
<path d="M200.008 178.009C201.508 176.765 203.399 176.09 205.348 176.103" stroke="#091A3C" stroke-width="1.5" stroke-linecap="round" stroke-linejoin="round"/>
<path d="M183.668 152.204C183.932 152.57 184.218 152.918 184.527 153.247C184.9 153.638 185.293 154.01 185.704 154.361C186.131 154.73 186.701 154.887 187.132 155.189C187.564 155.491 188.164 155.581 188.623 155.847C189.082 156.114 189.407 156.73 189.89 156.934C190.373 157.138 191.067 156.996 191.546 157.154C192.126 157.346 192.617 157.828 193.076 157.938C192.488 158.047 191.824 158.059 191.236 158.169C190.647 158.279 190.11 158.655 189.517 158.761C188.925 158.867 188.262 158.546 187.669 158.655C187.077 158.765 186.469 158.746 185.88 158.856C185.292 158.966 184.778 159.412 184.186 159.522C184.146 159.016 184.295 158.511 184.252 158.004C184.209 157.499 183.774 157.024 183.73 156.518C183.687 156.012 183.66 155.506 183.62 155.001C183.581 154.494 183.593 153.985 183.55 153.479C183.507 152.973 183.711 152.71 183.668 152.204Z" fill="#091A3C"/>
<path d="M262.049 160.106C264.712 161.095 267.63 161.16 270.335 160.291L262.049 160.106Z" fill="#80AD79"/>
<path d="M262.049 160.106C264.712 161.095 267.63 161.16 270.335 160.291" stroke="#091A3C" stroke-width="1.5" stroke-linecap="round" stroke-linejoin="round"/>
<path d="M261.317 177.751C261.317 177.751 257.448 175.005 254.502 175.935L261.317 177.751Z" fill="#80AD79"/>
<path d="M261.317 177.751C261.317 177.751 257.448 175.005 254.502 175.935" stroke="#091A3C" stroke-width="1.5" stroke-linecap="round" stroke-linejoin="round"/>
<path d="M241.985 177.727C241.985 177.727 238.67 175.013 236.461 175.198L241.985 177.727Z" fill="#80AD79"/>
<path d="M241.985 177.727C241.985 177.727 238.67 175.013 236.461 175.198" stroke="#091A3C" stroke-width="1.5" stroke-linecap="round" stroke-linejoin="round"/>
<path d="M238.854 158.82C240.624 159.705 242.583 160.147 244.563 160.107L238.854 158.82Z" fill="#80AD79"/>
<path d="M238.854 158.82C240.624 159.705 242.583 160.147 244.563 160.107" stroke="#091A3C" stroke-width="1.5" stroke-linecap="round" stroke-linejoin="round"/>
<path d="M219.394 112.869C219.637 113.328 219.594 113.944 219.837 114.402C220.081 114.861 220.23 115.375 220.481 115.834" fill="white"/>
<path d="M219.394 112.869C219.637 113.328 219.594 113.944 219.837 114.402C220.081 114.861 220.23 115.375 220.481 115.834" stroke="#091A3C" stroke-width="1.5" stroke-linecap="round" stroke-linejoin="round"/>
<path d="M222.608 115.653C222.882 115.194 223.302 114.822 223.577 114.363C223.852 113.904 223.969 113.355 224.24 112.896" fill="white"/>
<path d="M222.608 115.653C222.882 115.194 223.302 114.822 223.577 114.363C223.852 113.904 223.969 113.355 224.24 112.896" stroke="#091A3C" stroke-width="1.5" stroke-linecap="round" stroke-linejoin="round"/>
<path d="M260.374 152.287L256.714 149.067" stroke="#091A3C" stroke-width="1.5" stroke-linecap="round" stroke-linejoin="round"/>
<path d="M217.499 103.978C215.643 100.881 213.05 98.2896 209.95 96.4368C208.208 95.4054 204.245 93.0559 199.086 93.4951C191.333 94.1504 186.872 100.586 186.198 101.59" stroke="#091A3C" stroke-width="1.5" stroke-linecap="round" stroke-linejoin="round"/>
<path d="M296.368 232.4C296.368 232.4 280.348 217.333 299.244 206.325" stroke="#091A3C" stroke-width="1.5" stroke-linecap="round" stroke-linejoin="round"/>
<path d="M223.757 104.355C225.901 101.152 228.888 98.6019 232.388 96.9856C233.871 96.2797 240.482 93.1267 247.69 96.0641C250.812 97.378 253.495 99.5545 255.423 102.339" stroke="#091A3C" stroke-width="1.5" stroke-linecap="round" stroke-linejoin="round"/>
<path d="M143.672 219.365C143.672 219.365 163.002 208.874 147.536 193.418" stroke="#091A3C" stroke-width="1.5" stroke-linecap="round" stroke-linejoin="round"/>
<path d="M142.749 160.275C142.749 160.275 153.059 165.62 146.617 176.111" stroke="#091A3C" stroke-width="1.5" stroke-linecap="round" stroke-linejoin="round"/>
<path d="M149.557 161.099C149.841 161.212 150.152 161.242 150.453 161.185C150.754 161.128 151.032 160.987 151.256 160.777L154.289 157.926C154.55 157.679 154.721 157.352 154.775 156.997C154.829 156.642 154.763 156.279 154.587 155.965L154.029 154.973C153.893 154.733 153.697 154.533 153.46 154.391C153.223 154.249 152.954 154.171 152.679 154.163C152.402 154.155 152.129 154.218 151.885 154.346C151.641 154.474 151.433 154.663 151.283 154.894L148.808 158.738C148.679 158.937 148.597 159.161 148.566 159.396C148.534 159.631 148.555 159.869 148.627 160.094C148.699 160.32 148.819 160.527 148.98 160.701C149.14 160.874 149.338 161.01 149.557 161.099Z" fill="#F0B7C6" stroke="#091A3C" stroke-width="1.5" stroke-linecap="round" stroke-linejoin="round"/>
<path d="M152.979 165.33L154.481 164.581C154.664 164.489 154.865 164.438 155.069 164.429C155.274 164.421 155.478 164.456 155.668 164.532C155.858 164.609 156.03 164.724 156.171 164.872C156.313 165.02 156.422 165.196 156.49 165.389L156.69 165.942C156.762 166.147 156.787 166.366 156.763 166.582C156.74 166.798 156.668 167.005 156.553 167.19C156.438 167.374 156.283 167.531 156.1 167.647C155.916 167.764 155.709 167.838 155.493 167.864L153.795 168.06C153.581 168.085 153.364 168.062 153.16 167.992C152.957 167.923 152.771 167.808 152.617 167.658C152.463 167.508 152.344 167.325 152.27 167.123C152.195 166.921 152.167 166.706 152.186 166.491C152.209 166.246 152.294 166.011 152.432 165.808C152.571 165.605 152.759 165.441 152.979 165.33Z" fill="#F0B7C6" stroke="#091A3C" stroke-width="1.5" stroke-linecap="round" stroke-linejoin="round"/>
<path d="M152.371 172.943L157.158 173.802" stroke="#091A3C" stroke-width="1.5" stroke-linecap="round" stroke-linejoin="round"/>
<path d="M300.539 160.275C300.539 160.275 290.227 165.62 296.674 176.111" stroke="#091A3C" stroke-width="1.5" stroke-linecap="round" stroke-linejoin="round"/>
<path d="M293.739 161.099C293.454 161.212 293.143 161.242 292.843 161.185C292.542 161.128 292.263 160.987 292.04 160.777L289.007 157.926C288.746 157.679 288.575 157.352 288.521 156.997C288.466 156.642 288.533 156.279 288.709 155.965L289.266 154.973C289.403 154.733 289.599 154.533 289.836 154.391C290.072 154.249 290.341 154.171 290.617 154.163C290.893 154.155 291.166 154.218 291.411 154.346C291.655 154.474 291.862 154.663 292.013 154.894L294.488 158.738C294.616 158.937 294.699 159.161 294.73 159.396C294.761 159.631 294.741 159.869 294.669 160.094C294.597 160.32 294.477 160.527 294.316 160.701C294.155 160.874 293.958 161.01 293.739 161.099Z" fill="#F0B7C6" stroke="#091A3C" stroke-width="1.5" stroke-linecap="round" stroke-linejoin="round"/>
<path d="M290.31 165.33L288.807 164.581C288.624 164.489 288.423 164.438 288.219 164.429C288.014 164.421 287.81 164.456 287.62 164.532C287.43 164.609 287.258 164.724 287.117 164.872C286.975 165.02 286.866 165.196 286.798 165.389L286.602 165.942C286.529 166.146 286.503 166.363 286.525 166.578C286.547 166.793 286.618 167 286.731 167.184C286.843 167.369 286.996 167.525 287.177 167.643C287.359 167.76 287.564 167.836 287.779 167.864L289.478 168.06C289.691 168.085 289.908 168.062 290.112 167.992C290.316 167.923 290.501 167.808 290.656 167.658C290.81 167.508 290.928 167.325 291.003 167.123C291.077 166.921 291.106 166.706 291.086 166.491C291.065 166.248 290.983 166.014 290.847 165.811C290.711 165.608 290.526 165.443 290.31 165.33Z" fill="#F0B7C6" stroke="#091A3C" stroke-width="1.5" stroke-linecap="round" stroke-linejoin="round"/>
<path d="M290.918 172.943L286.132 173.802" stroke="#091A3C" stroke-width="1.5" stroke-linecap="round" stroke-linejoin="round"/>
<path d="M292.37 235.146L289.859 232.357C289.451 231.98 288.939 231.732 288.389 231.646C287.839 231.56 287.276 231.64 286.771 231.875C286.37 232.062 286.019 232.341 285.747 232.69C285.475 233.039 285.289 233.448 285.206 233.882C285.122 234.317 285.143 234.765 285.267 235.19C285.39 235.614 285.613 236.004 285.916 236.326L286.834 237.307" stroke="#091A3C" stroke-width="1.5" stroke-linecap="round" stroke-linejoin="round"/>
<path d="M287.096 223.541L288.618 225.996C288.696 226.123 288.743 226.267 288.756 226.415C288.768 226.563 288.747 226.713 288.692 226.851C288.637 226.99 288.551 227.113 288.44 227.213C288.329 227.312 288.197 227.384 288.053 227.424L287.826 227.479C287.617 227.531 287.397 227.511 287.201 227.422C287.005 227.332 286.845 227.18 286.747 226.989L285.452 224.475C285.381 224.338 285.344 224.186 285.345 224.032C285.346 223.878 285.384 223.727 285.456 223.59C285.528 223.454 285.632 223.338 285.759 223.251C285.886 223.163 286.033 223.108 286.186 223.09C286.364 223.072 286.545 223.105 286.706 223.184C286.867 223.264 287.002 223.388 287.096 223.541Z" stroke="#091A3C" stroke-width="1.5" stroke-linecap="round" stroke-linejoin="round"/>
<path d="M146.788 223.043L149.926 220.988C150.417 220.726 150.976 220.615 151.531 220.672C152.085 220.729 152.61 220.949 153.037 221.306C153.378 221.589 153.646 221.95 153.82 222.356C153.994 222.764 154.069 223.206 154.039 223.648C154.008 224.09 153.874 224.518 153.646 224.897C153.418 225.277 153.103 225.597 152.728 225.832L151.59 226.541" stroke="#091A3C" stroke-width="1.5" stroke-linecap="round" stroke-linejoin="round"/>
<path d="M154.827 213.16L152.728 215.149C152.618 215.252 152.534 215.38 152.483 215.523C152.432 215.664 152.416 215.817 152.435 215.966C152.455 216.116 152.509 216.259 152.595 216.384C152.681 216.508 152.795 216.611 152.928 216.682L153.136 216.796C153.326 216.901 153.546 216.938 153.759 216.902C153.973 216.865 154.168 216.758 154.313 216.596L156.204 214.494C156.307 214.379 156.38 214.242 156.418 214.093C156.456 213.944 156.457 213.788 156.422 213.638C156.388 213.489 156.317 213.349 156.217 213.233C156.117 213.116 155.99 213.026 155.847 212.968C155.677 212.898 155.489 212.879 155.308 212.913C155.127 212.947 154.96 213.033 154.827 213.16Z" stroke="#091A3C" stroke-width="1.5" stroke-linecap="round" stroke-linejoin="round"/>
<path d="M1043.6 429.705C1043.6 438.542 1050.77 445.705 1059.6 445.705H1110.65C1119.49 445.705 1126.65 438.542 1126.65 429.705V378C1126.65 369.163 1119.49 362 1110.65 362H1059.6C1050.77 362 1043.6 369.163 1043.6 378V429.705Z" fill="#F0B7C6"/>
<path d="M1100.84 391.481L1100.85 391.485C1101.31 391.75 1101.58 392.206 1101.58 392.703C1101.58 393.195 1101.32 393.653 1100.89 393.899L1084.78 403.233V422.87C1084.78 423.362 1084.52 423.82 1084.09 424.066M1100.84 391.481L1083.97 423.849M1100.84 391.481L1100.84 391.478L1085.61 383.93C1085.18 383.689 1084.66 383.689 1084.24 383.935C1084.24 383.935 1084.24 383.935 1084.24 383.935L1067.44 393.667L1067.44 393.667C1067.01 393.914 1066.75 394.372 1066.75 394.863V414.327C1066.75 414.82 1067.01 415.277 1067.45 415.528L1067.45 415.528L1067.45 415.53L1082.72 424.066M1100.84 391.481L1082.72 424.066M1084.09 424.066L1083.97 423.849M1084.09 424.066C1084.09 424.066 1084.09 424.066 1084.09 424.066L1083.97 423.849M1084.09 424.066C1083.88 424.189 1083.64 424.25 1083.41 424.25C1083.17 424.25 1082.93 424.19 1082.72 424.067L1082.72 424.068L1082.84 423.849M1083.97 423.849C1083.8 423.95 1083.6 424 1083.41 424C1083.21 424 1083.02 423.95 1082.84 423.849M1082.84 423.849L1082.72 424.066M1082.84 423.849L1082.72 424.066M1087.08 423.997L1087.08 423.997C1086.65 423.747 1086.39 423.304 1086.39 422.813V414.869C1086.39 414.385 1086.67 413.951 1087.11 413.687L1093.4 409.63L1093.42 400.813V400.812C1093.42 400.107 1094.04 399.772 1094.24 399.66C1094.25 399.658 1094.25 399.656 1094.26 399.655L1100.97 395.764C1100.97 395.764 1100.97 395.764 1100.97 395.764C1101.4 395.516 1101.93 395.515 1102.35 395.764C1102.78 396.01 1103.04 396.468 1103.04 396.959V396.959L1103.02 414.366L1087.08 423.997ZM1087.08 423.997C1087.31 424.126 1087.56 424.193 1087.81 424.193C1088.06 424.193 1088.31 424.13 1088.53 424L1088.53 424M1087.08 423.997L1088.53 424M1088.53 424L1088.54 423.997M1088.53 424L1088.54 423.997M1088.54 423.997L1102.33 415.559M1088.54 423.997L1102.33 415.559M1102.33 415.559C1102.33 415.559 1102.33 415.558 1102.33 415.558M1102.33 415.559L1102.33 415.558M1102.33 415.558C1102.76 415.311 1103.02 414.854 1103.02 414.366L1102.33 415.558ZM1083.57 401.733L1083.57 401.733C1083.14 401.98 1082.88 402.437 1082.88 402.929V421.973L1068.65 414.018V395.167L1084.94 385.728L1099.09 392.739L1083.57 401.733ZM1095.12 410.787L1095.22 410.726L1095.23 410.615L1095.28 410.301C1095.28 410.3 1095.28 410.3 1095.28 410.3C1095.28 410.295 1095.28 410.29 1095.28 410.285C1095.29 410.252 1095.3 410.218 1095.3 410.155C1095.3 410.091 1095.3 409.99 1095.3 409.802V409.801L1095.32 401.239L1101.14 397.872L1101.11 414.068L1088.29 421.913V415.197L1095.12 410.787Z" fill="#091A3C" stroke="#091A3C" stroke-width="0.5"/>
<path d="M261.695 294C261.695 285.163 254.532 278 245.695 278H194C185.163 278 178 285.163 178 294V345.705C178 354.542 185.163 361.705 194 361.705H245.695C254.532 361.705 261.695 354.542 261.695 345.705V294Z" fill="#9AADE2"/>
<path d="M231.383 336.018C230.144 336.981 228.8 337.779 227.381 338.422C227.381 338.422 227.381 338.422 227.381 338.422L231.383 336.018ZM231.383 336.018C236.381 332.149 239.25 326.311 239.25 320M231.383 336.018L239.25 320M239.25 320C239.25 312.684 235.282 305.916 228.897 302.339C225.898 300.645 222.477 299.75 219 299.75C217.016 299.75 215.068 300.034 213.215 300.593C205.083 303.013 199.287 310.325 198.793 318.774C198.763 319.128 198.75 319.507 198.75 320C198.75 327.483 202.849 334.324 209.445 337.853L239.25 320ZM227.135 336.406C227.474 335.577 227.769 334.734 228.034 333.824L228.103 333.584L227.863 333.514L226.491 333.116L226.251 333.047L226.181 333.287C225.75 334.776 225.235 336.076 224.546 337.447C222.768 338.023 220.907 338.321 219 338.321C216.064 338.321 213.263 337.641 210.665 336.309C209.45 333.231 208.857 330.404 208.857 327.676C208.857 326.45 209.068 325.443 209.318 324.246L209.318 324.246L209.33 324.188C209.386 323.919 209.444 323.643 209.5 323.359L209.549 323.114L209.303 323.065L207.901 322.789L207.656 322.741L207.608 322.986C207.549 323.282 207.49 323.568 207.43 323.85L207.43 323.85L207.427 323.864C207.174 325.077 206.929 326.249 206.929 327.676C206.929 329.943 207.302 332.255 208.05 334.677C203.45 331.253 200.679 325.847 200.679 320C200.679 319.881 200.684 319.764 200.689 319.641C200.69 319.639 200.69 319.637 200.69 319.636C202.144 319.326 203.491 319.166 205.051 319.128L205.301 319.122L205.295 318.872L205.26 317.444L205.254 317.194L205.004 317.2C203.542 317.236 202.213 317.379 200.848 317.637C201.753 310.652 206.644 304.73 213.403 302.563C214.736 303.266 215.756 303.902 216.74 304.647L216.94 304.798L217.091 304.599L217.954 303.461L218.105 303.262L217.906 303.111C217.343 302.684 216.768 302.293 216.147 301.909C217.084 301.76 218.036 301.679 219 301.679C221.265 301.679 223.5 302.105 225.588 302.913C225.232 303.026 224.861 303.152 224.466 303.295L224.231 303.38L224.316 303.615L224.801 304.959L224.886 305.194L225.121 305.109C226.313 304.678 227.271 304.402 228.251 304.199C233.852 307.479 237.321 313.498 237.321 320C237.321 325.284 235.097 330.199 231.18 333.678C231.002 333.269 230.815 332.863 230.615 332.462L230.503 332.239L230.28 332.351L229.002 332.99L228.778 333.102L228.89 333.325C229.149 333.845 229.387 334.378 229.61 334.916C228.823 335.479 227.998 335.978 227.135 336.406ZM217.246 309.805L217.434 309.64L217.27 309.452L216.331 308.376L216.167 308.187L215.979 308.352C214.356 309.767 213.096 311.27 211.631 313.525L211.495 313.735L211.705 313.871L212.903 314.649L213.113 314.785L213.249 314.575C214.617 312.468 215.774 311.09 217.246 309.805ZM214.992 318.64L214.756 318.559L214.674 318.795L214.21 320.146L214.129 320.382L214.365 320.464C217.607 321.577 220.439 323.353 223.28 326.064L223.461 326.236L223.634 326.055L224.62 325.022L224.793 324.841L224.612 324.668C221.571 321.768 218.512 319.849 214.992 318.64ZM224.67 310.34L224.533 310.131L224.324 310.268L223.131 311.052L222.922 311.189L223.059 311.398C225.577 315.239 226.993 319.45 227.271 323.917L227.287 324.166L227.536 324.151L228.962 324.062L229.211 324.047L229.196 323.797C228.897 318.991 227.374 314.463 224.67 310.34ZM227.659 326.766C228.702 326.766 229.551 327.616 229.551 328.659C229.551 329.703 228.702 330.552 227.659 330.552C226.615 330.552 225.766 329.703 225.766 328.659C225.766 327.616 226.615 326.766 227.659 326.766ZM227.659 332.481C229.766 332.481 231.48 330.767 231.48 328.659C231.48 326.552 229.766 324.838 227.659 324.838C225.551 324.838 223.837 326.552 223.837 328.659C223.837 330.767 225.551 332.481 227.659 332.481ZM209.994 316.459C211.038 316.459 211.887 317.308 211.887 318.351C211.887 319.395 211.038 320.244 209.994 320.244C208.95 320.244 208.101 319.395 208.101 318.351C208.101 317.308 208.95 316.459 209.994 316.459ZM209.994 322.173C212.101 322.173 213.816 320.459 213.816 318.351C213.816 316.244 212.101 314.53 209.994 314.53C207.887 314.53 206.173 316.244 206.173 318.351C206.173 320.459 207.887 322.173 209.994 322.173ZM220.95 309.041C219.907 309.041 219.057 308.191 219.057 307.148C219.057 306.104 219.907 305.255 220.95 305.255C221.994 305.255 222.843 306.104 222.843 307.148C222.843 308.191 221.994 309.041 220.95 309.041ZM220.95 303.326C218.843 303.326 217.129 305.04 217.129 307.148C217.129 309.255 218.843 310.969 220.95 310.969C223.057 310.969 224.771 309.255 224.771 307.148C224.771 305.041 223.057 303.326 220.95 303.326Z" fill="#091A3C" stroke="#091A3C" stroke-width="0.5"/>
<path d="M135.37 379C135.37 370.163 128.207 363 119.37 363H70.8496C62.013 363 54.8495 370.163 54.8495 379V430.705C54.8495 439.542 62.013 446.705 70.8496 446.705H119.37C128.207 446.705 135.37 439.542 135.37 430.705V379Z" fill="#80AD79" stroke="#091A3C" stroke-width="1.5" stroke-linecap="round" stroke-linejoin="round"/>
<path d="M124.968 405.97C124.969 412.767 122.51 419.335 118.047 424.463C113.584 429.59 107.416 432.932 100.681 433.872C93.9466 434.811 87.099 433.285 81.4017 429.575C75.7043 425.865 71.5408 420.22 69.6793 413.683C67.8179 407.146 68.3838 400.156 71.2727 394.003C74.1616 387.85 79.1787 382.948 85.3987 380.202C91.6188 377.456 98.6227 377.05 105.119 379.06C111.614 381.069 117.164 385.359 120.745 391.137C123.506 395.593 124.968 400.73 124.968 405.97Z" fill="#E1DFD8" stroke="#091A3C" stroke-width="1.5" stroke-linecap="round" stroke-linejoin="round"/>
<path d="M124.969 405.97C124.974 409.867 124.168 413.722 122.601 417.291C121.034 420.859 118.741 424.062 115.868 426.697C115.451 427.072 115.019 427.448 114.579 427.823C110.034 431.52 104.449 433.71 98.601 434.089C92.753 434.468 86.9325 433.017 81.9471 429.938C80.4966 427.6 79.3986 425.061 78.6894 422.403C78.436 421.467 78.2328 420.518 78.0806 419.56C77.8493 418.086 77.7338 416.597 77.7346 415.105C77.7326 410.086 79.0718 405.157 81.6138 400.829C84.1562 396.5 87.8093 392.929 92.1953 390.485C96.5816 388.041 101.541 386.813 106.561 386.928C111.581 387.042 116.48 388.496 120.749 391.137C122.993 394.749 124.385 398.823 124.823 403.052C124.883 403.634 124.928 404.223 124.947 404.817C124.962 405.2 124.969 405.583 124.969 405.97Z" fill="#091A3C"/>
<path d="M124.969 405.97C124.974 409.867 124.168 413.722 122.601 417.291C121.033 420.859 118.741 424.062 115.868 426.697C115.451 427.072 115.019 427.448 114.579 427.824C108.353 427.36 102.419 425 97.5753 421.063L95.7339 419.56C94.1438 418.266 92.1844 417.507 90.1365 417.393C88.089 417.279 86.0574 417.815 84.333 418.925C80.1997 421.6 72.534 425.581 62.8241 425.243C60.959 425.177 59.1024 424.956 57.2736 424.582C54.2501 424.22 51.4469 422.817 49.3452 420.614C47.2438 418.411 45.9748 415.546 45.7565 412.51C45.7337 412.182 45.7227 411.859 45.7227 411.541C45.7296 409.672 46.136 407.827 46.9153 406.129C47.6943 404.43 48.8278 402.918 50.2396 401.694C51.6513 400.469 53.3092 399.561 55.1008 399.029C56.8929 398.498 58.778 398.356 60.6293 398.612L72.6992 400.291L75.9272 397.613C79.5338 394.621 84.0638 392.967 88.7504 392.93C93.4371 392.894 97.9923 394.478 101.645 397.414C107.687 402.254 115.201 404.887 122.943 404.877C123.613 404.877 124.289 404.877 124.962 404.817C124.962 405.2 124.969 405.583 124.969 405.97Z" fill="#F48757" stroke="#091A3C" stroke-width="1.5" stroke-linecap="round" stroke-linejoin="round"/>
<path d="M87.7272 417.438L95.1452 415.879" stroke="#091A3C" stroke-width="1.5" stroke-linecap="round" stroke-linejoin="round"/>
<path d="M66.1728 411.759L54.5235 414.869C53.9967 415.025 53.4414 415.063 52.8975 414.98C52.354 414.897 51.8358 414.694 51.38 414.387C50.9238 414.079 50.5419 413.675 50.2608 413.202C49.9801 412.729 49.8071 412.201 49.7552 411.653C49.7026 410.965 49.8471 410.275 50.1723 409.666C50.6174 408.87 51.3311 408.258 52.1855 407.938C53.0403 407.618 53.9804 407.612 54.8393 407.92L66.1728 411.759Z" fill="white" stroke="#091A3C" stroke-width="1.5" stroke-linecap="round" stroke-linejoin="round"/>
<path d="M53.4454 412.393C54.0081 412.393 54.4639 411.938 54.4639 411.375C54.4639 410.813 54.0081 410.357 53.4454 410.357C52.8831 410.357 52.4274 410.813 52.4274 411.375C52.4274 411.938 52.8831 412.393 53.4454 412.393Z" fill="white" stroke="#091A3C" stroke-width="1.5" stroke-linecap="round" stroke-linejoin="round"/>
<path d="M72.6994 400.268L78.1633 400.659" stroke="#091A3C" stroke-width="1.5" stroke-linecap="round" stroke-linejoin="round"/>
<path d="M532.991 403.544L507.232 415.555C503.568 417.291 499.491 417.948 495.467 417.461C491.447 416.963 487.644 415.346 484.499 412.78C484.453 412.739 484.406 412.697 484.349 412.652C476.173 405.795 475.962 398.804 469.442 392.211C465.962 388.675 460.149 384.739 449.982 383.013C449.312 382.91 448.665 382.662 448.097 382.296C447.529 381.929 447.034 381.447 446.662 380.881C446.286 380.308 446.033 379.668 445.927 378.996C445.814 378.328 445.836 377.641 446.007 376.983C446.419 375.583 447.221 374.325 448.323 373.36C449.417 372.399 450.769 371.76 452.216 371.536C456.543 370.564 461.061 370.794 465.275 372.193C468.508 373.283 471.48 375.054 473.98 377.378L447.642 320.897C445.649 316.622 447.367 311.176 451.6 309.094C452.641 308.582 453.776 308.287 454.933 308.216C456.094 308.153 457.26 308.313 458.354 308.705C459.444 309.089 460.455 309.691 461.315 310.471C462.175 311.252 462.866 312.192 463.357 313.244C467.874 322.583 472.395 331.912 476.92 341.247C476.993 340.978 478.491 336.086 483.528 334.702C488.565 333.319 492.444 336.84 492.625 337.017C493.409 335.371 494.61 333.963 496.123 332.933C497.629 331.906 499.386 331.303 501.21 331.192C506.789 330.855 510.009 335.324 510.182 335.577C510.738 334.217 511.583 332.993 512.657 331.988C513.73 330.982 515.009 330.223 516.4 329.764C516.64 329.679 516.887 329.609 517.13 329.55C518.877 329.177 520.689 329.406 522.287 330.203C523.882 330.992 525.155 332.311 525.905 333.918C527.417 337.046 529.271 340.926 531.377 345.364C540.706 365.042 541.92 368.399 542.723 370.875C543.663 373.782 544.449 376.744 545.055 379.744C546.004 384.488 545.335 389.418 543.144 393.731C540.956 398.053 537.38 401.506 532.991 403.544Z" fill="#E9CF85" stroke="#091A3C" stroke-width="1.5" stroke-linecap="round" stroke-linejoin="round"/>
<path d="M183.123 257.95L188.351 255.253C188.524 255.163 188.622 254.973 188.593 254.78C188.564 254.587 187.588 248.041 187.588 248.041L191.635 253.5C191.741 253.644 191.922 253.712 192.096 253.675L198.191 252.374L192.928 257.165C192.815 257.268 192.761 257.421 192.784 257.573L193.792 264.039L188.94 258.049C188.852 257.941 188.719 257.879 188.579 257.881L183.123 257.95Z" fill="#FCD76C"/>
<path d="M146.483 110.949L152.27 112.003C152.462 112.038 152.655 111.947 152.75 111.776C152.845 111.606 156.068 105.826 156.068 105.826L155.941 112.62C155.938 112.799 156.039 112.963 156.2 113.04L161.822 115.729L154.728 116.312C154.576 116.324 154.44 116.413 154.366 116.547L151.217 122.284L151.03 114.578C151.026 114.439 150.959 114.308 150.847 114.224L146.483 110.949Z" fill="#FCD76C" stroke="#091A3C" stroke-width="1.5" stroke-linecap="round" stroke-linejoin="round"/>
<path d="M158.047 252.537L160.643 249.822C160.778 249.681 160.808 249.47 160.717 249.296L158.661 245.349L162.332 247.865C162.479 247.966 162.672 247.972 162.825 247.879L166.308 245.782L164.036 249.91C163.962 250.045 163.961 250.208 164.033 250.343L166.045 254.145L161.677 251.42C161.559 251.346 161.413 251.33 161.281 251.378L158.047 252.537Z" fill="#FCD76C"/>
<path d="M257.029 251.904L259.949 252.764C260.136 252.819 260.338 252.749 260.45 252.589L262.563 249.594L262.108 253.231C262.086 253.408 262.17 253.582 262.322 253.676L265.171 255.433L261.263 255.327C261.109 255.323 260.964 255.397 260.876 255.523L258.847 258.438L259.197 254.16C259.208 254.021 259.155 253.884 259.053 253.789L257.029 251.904Z" fill="#FCD76C"/>
<path d="M303 363.75C311.422 363.75 318.25 370.578 318.25 379V430C318.25 438.422 311.422 445.25 303 445.25H252C243.578 445.25 236.75 438.422 236.75 430V379C236.75 370.578 243.578 363.75 252 363.75H303Z" stroke="#E1DFD8" stroke-width="1.5" stroke-linecap="round" stroke-linejoin="round"/>
<path fill-rule="evenodd" clip-rule="evenodd" d="M273.761 413.999H275.857V412.797H273.761V413.999ZM277.286 413.999H279.429V412.797H277.286V413.999ZM268.714 389.567L259.429 393.412V417.313L268.714 419.932V389.567ZM270.143 397.172V412.797H272.286V413.999H270.143V420.768C270.143 420.961 270.032 421.143 269.846 421.256C269.723 421.33 269.576 421.369 269.429 421.369C269.353 421.369 269.276 421.358 269.201 421.337L258.487 418.315C258.196 418.233 258 418.003 258 417.745V393.037C258 392.809 258.155 392.599 258.399 392.498L269.114 388.062C269.334 387.97 269.596 387.981 269.806 388.091C270.015 388.2 270.143 388.393 270.143 388.601V395.971H272.286V397.172H270.143ZM280.857 413.999H283V412.797H280.857V413.999ZM280.904 397.172H283V395.971H280.904V397.172ZM277.332 397.172H279.429V395.971H277.332V397.172ZM273.761 397.172H275.857V395.971H273.761V397.172ZM296.571 393.412L287.286 389.567V419.932L296.571 417.313V393.412ZM298 417.745C298 418.003 297.804 418.233 297.513 418.315L286.799 421.337C286.724 421.358 286.647 421.369 286.571 421.369C286.424 421.369 286.277 421.33 286.154 421.256C285.968 421.143 285.857 420.961 285.857 420.768V413.999H284.475V412.797H285.857V397.172H284.475V395.971H285.857V388.601C285.857 388.393 285.985 388.2 286.194 388.091C286.404 387.981 286.665 387.97 286.886 388.062L297.601 392.498C297.845 392.599 298 392.809 298 393.037V417.745ZM280.096 400.994L278.761 400.562L275.19 408.375L276.524 408.806L280.096 400.994ZM284.934 404.809C285.213 404.574 285.213 404.193 284.934 403.959L282.076 401.555L281.066 402.405L283.419 404.384L281.066 406.363L282.076 407.213L284.934 404.809ZM273.924 407.213L271.066 404.809C270.787 404.574 270.787 404.193 271.066 403.959L273.924 401.555L274.934 402.405L272.581 404.384L274.934 406.363L273.924 407.213Z" fill="white"/>
<path d="M234 379C234 370.163 226.837 363 218 363H167C158.163 363 151 370.163 151 379V430C151 438.837 158.163 446 167 446H218C226.837 446 234 438.837 234 430V379Z" fill="#EAECF0"/>
<path d="M177.065 409.519V388.657H208.935V389.111V389.361H209.185H210.593H210.843V389.111V387.704C210.843 387.177 210.416 386.75 209.889 386.75H176.111C175.584 386.75 175.157 387.177 175.157 387.704V409.519V409.769H175.407H176.815H177.065V409.519ZM209.185 397.306H208.935V397.556V420.528H177.065V417.963V417.713H176.815H175.407H175.157V417.963V421.481C175.157 422.008 175.584 422.435 176.111 422.435H209.889C210.416 422.435 210.843 422.008 210.843 421.481V397.556V397.306H210.593H209.185ZM209.185 392.176C209.823 392.176 210.343 392.695 210.343 393.333C210.343 393.971 209.823 394.491 209.185 394.491C208.547 394.491 208.028 393.971 208.028 393.333C208.028 392.695 208.547 392.176 209.185 392.176ZM193 408.361C193.638 408.361 194.157 408.88 194.157 409.519C194.157 410.157 193.638 410.676 193 410.676C192.362 410.676 191.843 410.157 191.843 409.519C191.843 408.88 192.362 408.361 193 408.361ZM194.157 398.259C194.157 398.897 193.638 399.417 193 399.417C192.362 399.417 191.843 398.897 191.843 398.259C191.843 397.621 192.362 397.102 193 397.102C193.638 397.102 194.157 397.621 194.157 398.259ZM176.815 412.583C177.453 412.583 177.972 413.103 177.972 413.741C177.972 414.379 177.453 414.898 176.815 414.898C176.177 414.898 175.657 414.379 175.657 413.741C175.657 413.103 176.177 412.583 176.815 412.583ZM209.185 396.398C210.876 396.398 212.25 395.024 212.25 393.333C212.25 391.643 210.876 390.269 209.185 390.269C207.495 390.269 206.12 391.643 206.12 393.333C206.12 393.768 206.219 394.174 206.382 394.543L194.351 406.781C194.223 406.718 194.091 406.662 193.954 406.617V401.161C195.175 400.759 196.065 399.617 196.065 398.259C196.065 396.569 194.69 395.194 193 395.194C191.31 395.194 189.935 396.569 189.935 398.259C189.935 398.563 189.987 398.85 190.069 399.119L178.113 410.979C177.722 410.791 177.284 410.676 176.815 410.676C175.124 410.676 173.75 412.05 173.75 413.741C173.75 415.431 175.124 416.806 176.815 416.806C178.505 416.806 179.88 415.431 179.88 413.741C179.88 413.212 179.74 412.717 179.504 412.285L191.177 400.707C191.438 400.902 191.73 401.056 192.046 401.161V406.617C190.825 407.018 189.935 408.161 189.935 409.519C189.935 411.209 191.31 412.583 193 412.583C194.69 412.583 196.065 411.209 196.065 409.519C196.065 409.009 195.933 408.534 195.713 408.116L207.644 395.981C208.096 396.246 208.624 396.398 209.185 396.398Z" fill="#091A3C" stroke="#091A3C" stroke-width="0.5"/>
</g>
<defs>
<clipPath id="clip0_279_31700">
<rect width="1148" height="448" fill="white"/>
</clipPath>
</defs>
</svg>
