<svg width="56" height="56" viewBox="0 0 56 56" fill="none" xmlns="http://www.w3.org/2000/svg">
<rect x="1" y="1" width="54" height="54" rx="16" fill="#FBF0C4"/>
<rect x="1" y="1" width="54" height="54" rx="16" stroke="#091A3C" stroke-width="2"/>
<path d="M29.3333 30.6667L25.3333 26.6667M32.0138 16.6667V14.6667M37.2662 18.7476L38.6804 17.3334M37.2662 29.3334L38.6804 30.7476M26.6805 18.7476L25.2662 17.3334M39.3471 24.0001H41.3471M20.1751 39.8249L32.4915 27.5086C33.0195 26.9806 33.2835 26.7165 33.3824 26.4121C33.4694 26.1443 33.4694 25.8558 33.3824 25.5881C33.2835 25.2836 33.0195 25.0196 32.4915 24.4916L31.5085 23.5086C30.9805 22.9806 30.7164 22.7165 30.412 22.6176C30.1442 22.5306 29.8557 22.5306 29.588 22.6176C29.2835 22.7165 29.0195 22.9806 28.4915 23.5086L16.1751 35.8249C15.6471 36.3529 15.3831 36.617 15.2842 36.9214C15.1972 37.1892 15.1972 37.4776 15.2842 37.7454C15.3831 38.0499 15.6471 38.3139 16.1751 38.8419L17.1582 39.8249C17.6862 40.3529 17.9502 40.617 18.2546 40.7159C18.5224 40.8029 18.8109 40.8029 19.0787 40.7159C19.3831 40.617 19.6471 40.3529 20.1751 39.8249Z" stroke="#091A3C" stroke-width="2" stroke-linecap="round" stroke-linejoin="round"/>
</svg>
