<?xml version="1.0" encoding="UTF-8"?>
<svg xmlns="http://www.w3.org/2000/svg" width="1em" height="1em" viewBox="0 0 30 30" fill="none" role="img" aria-labelledby="custom-icon-title">
  <title id="custom-icon-title">Custom</title>
  <path d="M14.9998 1.6665C18.3349 5.31764 20.2302 10.0559 20.3332 14.9998C20.2302 19.9438 18.3349 24.682 14.9998 28.3332M14.9998 1.6665C11.6648 5.31764 9.7695 10.0559 9.6665 14.9998C9.7695 19.9438 11.6648 24.682 14.9998 28.3332M14.9998 1.6665C7.63604 1.6665 1.6665 7.63604 1.6665 14.9998C1.6665 22.3636 7.63604 28.3332 14.9998 28.3332M14.9998 1.6665C22.3636 1.6665 28.3332 7.63604 28.3332 14.9998C28.3332 22.3636 22.3636 28.3332 14.9998 28.3332M2.3332 10.9998H27.6665M2.33317 18.9998H27.6665" stroke="#091A3C" stroke-width="2" stroke-linecap="round" stroke-linejoin="round"/>
</svg>