<svg xmlns="http://www.w3.org/2000/svg" width="1em" height="1em" viewBox="0 0 16 16"><path fill="#F7DF1E" d="M0 0h16v16H0V0z"></path><path d="m4.2 13.37 1.23-.74c.24.42.45.77.97.77.5 0 .8-.19.8-.94V7.35h1.5v5.13c0 1.56-.9 2.27-2.24 2.27-1.2 0-1.9-.63-2.25-1.38zm5.32-.16 1.23-.7c.32.52.74.9 1.48.9.62 0 1.02-.3 1.02-.74 0-.51-.4-.7-1.1-1l-.37-.16c-1.09-.46-1.8-1.04-1.8-2.26 0-1.13.85-1.99 2.2-1.99.95 0 1.64.33 2.13 1.2l-1.17.75c-.25-.46-.53-.64-.96-.64-.44 0-.72.28-.72.64 0 .46.28.64.92.92l.38.16c1.27.55 2 1.1 2 2.36 0 1.35-1.07 2.1-2.5 2.1-1.4 0-2.3-.67-2.74-1.54"></path></svg>