<svg width="25" height="18" viewBox="0 0 25 18" fill="none" xmlns="http://www.w3.org/2000/svg">
<path d="M3.37134 0.34411C2.58135 0.477441 1.90469 0.83077 1.32803 1.40743C0.708041 2.02742 0.344713 2.77408 0.244715 3.64406C0.221381 3.84406 0.214715 5.7307 0.224715 9.24399C0.234715 14.0639 0.241381 14.5639 0.291381 14.7672C0.488044 15.5606 0.791374 16.1106 1.32803 16.6472C1.86469 17.1839 2.41468 17.4872 3.20801 17.6839C3.41467 17.7372 4.10466 17.7405 12.0312 17.7505C17.9711 17.7605 20.7144 17.7505 20.9044 17.7272C21.7111 17.6239 22.4611 17.2672 23.0444 16.7139C23.6377 16.1472 24.0411 15.3606 24.1677 14.5272C24.2377 14.0573 24.2377 3.99739 24.1677 3.5274C24.0744 2.91407 23.8044 2.26408 23.4511 1.79076C22.9344 1.10743 22.1177 0.580773 21.2478 0.37411C21.0111 0.31411 20.5544 0.310777 12.3145 0.307444C5.27798 0.300777 3.58133 0.307444 3.37134 0.34411ZM20.9244 1.84742C21.7244 2.02409 22.3711 2.62741 22.6211 3.4274L22.6977 3.6774V9.04399V14.4106L22.6044 14.6772C22.4644 15.0706 22.3344 15.2806 22.0344 15.5806C21.7311 15.8806 21.4644 16.0472 21.0811 16.1672L20.8311 16.2439H12.1979H3.56467L3.29801 16.1539C2.93468 16.0306 2.65135 15.8539 2.38802 15.5906C2.12136 15.3206 1.94136 15.0339 1.82136 14.6772L1.73136 14.4106V9.02732V3.64406L1.82136 3.3774C2.07136 2.64408 2.59802 2.12409 3.31801 1.89742C3.43467 1.86076 3.568 1.82409 3.61467 1.81742C3.66133 1.81076 7.52128 1.80076 12.1912 1.79742C19.8444 1.79409 20.7078 1.80076 20.9244 1.84742Z" fill="#091A3C"/>
<path d="M7.01465 4.75072C6.83465 4.78072 6.48799 4.90405 6.32466 4.99738C5.48467 5.47737 5.06135 6.45069 5.28468 7.39068C5.30468 7.47401 5.38134 7.67068 5.45801 7.82734C5.56467 8.05734 5.64134 8.16067 5.86133 8.37733C6.31466 8.83066 6.74799 9.00732 7.39798 9.00732C7.71131 9.00399 7.80464 8.99066 8.0313 8.91399C9.30795 8.474 9.87461 7.09068 9.27129 5.88403C9.00129 5.34071 8.4313 4.90405 7.83131 4.77738C7.61464 4.73072 7.20798 4.71738 7.01465 4.75072Z" fill="#091A3C"/>
<path d="M13.1813 5.85725C12.888 6.01391 12.7646 6.36724 12.908 6.64723C12.988 6.80723 13.0646 6.87723 13.2246 6.9439C13.3313 6.98723 13.7613 6.9939 16.7346 6.9939C19.2245 6.9939 20.1579 6.9839 20.2545 6.9539C20.4178 6.90723 20.5978 6.70723 20.6478 6.53057C20.7178 6.26724 20.5778 5.96724 20.3345 5.85725C20.2045 5.79725 20.0412 5.79391 16.7479 5.79391C13.4479 5.79391 13.2913 5.79725 13.1813 5.85725Z" fill="#091A3C"/>
<path d="M13.2379 8.24073C13.0712 8.30072 12.9845 8.38072 12.9112 8.54405C12.7645 8.86405 12.9079 9.24071 13.2245 9.35738C13.2879 9.38404 14.4078 9.39404 16.7578 9.39404C20.0411 9.39404 20.2044 9.39071 20.3344 9.33071C20.7878 9.12405 20.7644 8.46739 20.2978 8.25739C20.1711 8.19739 19.9911 8.19406 16.7645 8.19739C13.9812 8.19739 13.3412 8.20406 13.2379 8.24073Z" fill="#091A3C"/>
<path d="M5.71115 9.06387C5.40115 9.26387 4.89116 9.7872 4.64783 10.1605C4.30117 10.6905 4.04784 11.2905 3.92784 11.8705C3.84118 12.3038 3.94784 12.6405 4.26784 12.9205C4.55117 13.1738 4.41117 13.1638 7.43446 13.1538L10.1311 13.1438L10.2744 13.0672C10.6044 12.8905 10.8111 12.5805 10.8377 12.2138C10.8777 11.7238 10.4544 10.6372 9.97109 9.98386C9.72109 9.64387 9.36443 9.29054 9.05444 9.08054L8.81444 8.91721L8.50778 9.07054C8.07778 9.28387 7.84445 9.34054 7.38113 9.34054C6.9178 9.34054 6.68447 9.2872 6.25781 9.07721C6.09115 8.99388 5.94781 8.92721 5.93781 8.92721C5.93115 8.92721 5.82782 8.99054 5.71115 9.06387Z" fill="#091A3C"/>
<path d="M13.1246 10.7106C12.7613 10.9306 12.7613 11.4973 13.128 11.7106L13.2713 11.7939H15.5513H17.8312L17.9646 11.7173C18.3212 11.5173 18.3445 10.9606 18.0079 10.7206L17.8979 10.644L15.5813 10.634L13.2646 10.6273L13.1246 10.7106Z" fill="#091A3C"/>
</svg>
